<svg xmlns="http://www.w3.org/2000/svg" xmlns:svg="http://www.w3.org/2000/svg" xmlns:xlink="http://www.w3.org/1999/xlink" id="svg6431" width="32" height="32" version="1.1"><defs id="defs6433"><linearGradient id="linearGradient7916"><stop style="stop-color:#fff;stop-opacity:1" id="stop7918" offset="0"/><stop style="stop-color:#fff;stop-opacity:.34020618" id="stop7920" offset="1"/></linearGradient><linearGradient id="linearGradient4350"><stop style="stop-color:#fff;stop-opacity:1" id="stop4352" offset="0"/><stop style="stop-color:#fff;stop-opacity:0" id="stop4354" offset="1"/></linearGradient><linearGradient id="linearGradient4750"><stop style="stop-color:#fff;stop-opacity:1" id="stop4752" offset="0"/><stop style="stop-color:#fefefe;stop-opacity:1" id="stop4758" offset=".379"/><stop style="stop-color:#1d1d1d;stop-opacity:1" id="stop4754" offset="1"/></linearGradient><linearGradient id="linearGradient4126"><stop style="stop-color:#fff;stop-opacity:1" id="stop4128" offset="0"/><stop style="stop-color:#fff;stop-opacity:.16494845" id="stop4130" offset="1"/></linearGradient><radialGradient id="radialGradient4358" cx="11.827" cy="10.476" r="32.665" fx="11.827" fy="10.476" gradientTransform="scale(1.179536,0.847791)" gradientUnits="userSpaceOnUse" xlink:href="#linearGradient4350"/><radialGradient id="radialGradient4360" cx="18.634" cy="17.486" r="40.693" fx="18.934" fy="17.81" gradientTransform="scale(1.036822,0.964486)" gradientUnits="userSpaceOnUse" xlink:href="#linearGradient4750"/><radialGradient id="radialGradient4362" cx="18.634" cy="17.486" r="40.693" fx="18.934" fy="17.81" gradientTransform="scale(1.036822,0.964486)" gradientUnits="userSpaceOnUse" xlink:href="#linearGradient4750"/><radialGradient id="radialGradient4364" cx="18.634" cy="17.486" r="40.693" fx="18.934" fy="17.81" gradientTransform="scale(1.036822,0.964486)" gradientUnits="userSpaceOnUse" xlink:href="#linearGradient4750"/><radialGradient id="radialGradient4366" cx="18.634" cy="17.486" r="40.693" fx="18.934" fy="17.81" gradientTransform="scale(1.036822,0.964486)" gradientUnits="userSpaceOnUse" xlink:href="#linearGradient4750"/><radialGradient id="radialGradient4368" cx="18.634" cy="17.486" r="40.693" fx="18.934" fy="17.81" gradientTransform="scale(1.036822,0.964486)" gradientUnits="userSpaceOnUse" xlink:href="#linearGradient4750"/><radialGradient id="radialGradient4370" cx="18.634" cy="17.486" r="40.693" fx="18.934" fy="17.81" gradientTransform="scale(1.036822,0.964486)" gradientUnits="userSpaceOnUse" xlink:href="#linearGradient4750"/><radialGradient id="radialGradient4372" cx="18.634" cy="17.486" r="40.693" fx="18.934" fy="17.81" gradientTransform="scale(1.036822,0.964486)" gradientUnits="userSpaceOnUse" xlink:href="#linearGradient4750"/><radialGradient id="radialGradient4374" cx="18.634" cy="17.486" r="40.693" fx="18.934" fy="17.81" gradientTransform="scale(1.036822,0.964486)" gradientUnits="userSpaceOnUse" xlink:href="#linearGradient4750"/><radialGradient id="radialGradient4376" cx="18.634" cy="17.486" r="40.693" fx="18.934" fy="17.81" gradientTransform="scale(1.036822,0.964486)" gradientUnits="userSpaceOnUse" xlink:href="#linearGradient4750"/><radialGradient id="radialGradient4378" cx="18.634" cy="17.486" r="40.693" fx="18.934" fy="17.81" gradientTransform="scale(1.036822,0.964486)" gradientUnits="userSpaceOnUse" xlink:href="#linearGradient4750"/><radialGradient id="radialGradient4380" cx="18.634" cy="17.486" r="40.693" fx="18.934" fy="17.81" gradientTransform="scale(1.036822,0.964486)" gradientUnits="userSpaceOnUse" xlink:href="#linearGradient4750"/><radialGradient id="radialGradient4382" cx="18.634" cy="17.486" r="40.693" fx="18.934" fy="17.81" gradientTransform="scale(1.036822,0.964486)" gradientUnits="userSpaceOnUse" xlink:href="#linearGradient4750"/><radialGradient id="radialGradient4384" cx="18.634" cy="17.486" r="40.693" fx="18.934" fy="17.81" gradientTransform="scale(1.036822,0.964486)" gradientUnits="userSpaceOnUse" xlink:href="#linearGradient4750"/><radialGradient id="radialGradient4386" cx="18.634" cy="17.486" r="40.693" fx="18.934" fy="17.81" gradientTransform="scale(1.036822,0.964486)" gradientUnits="userSpaceOnUse" xlink:href="#linearGradient4750"/><radialGradient id="radialGradient4388" cx="18.634" cy="17.486" r="40.693" fx="18.934" fy="17.81" gradientTransform="scale(1.036822,0.964486)" gradientUnits="userSpaceOnUse" xlink:href="#linearGradient4750"/><radialGradient id="radialGradient4390" cx="18.634" cy="17.486" r="40.693" fx="18.934" fy="17.81" gradientTransform="scale(1.036822,0.964486)" gradientUnits="userSpaceOnUse" xlink:href="#linearGradient4750"/><radialGradient id="radialGradient4392" cx="18.634" cy="17.486" r="40.693" fx="18.934" fy="17.81" gradientTransform="scale(1.036822,0.964486)" gradientUnits="userSpaceOnUse" xlink:href="#linearGradient4750"/><radialGradient id="radialGradient4394" cx="18.634" cy="17.486" r="40.693" fx="18.934" fy="17.81" gradientTransform="scale(1.036822,0.964486)" gradientUnits="userSpaceOnUse" xlink:href="#linearGradient4750"/><radialGradient id="radialGradient4396" cx="18.634" cy="17.486" r="40.693" fx="18.934" fy="17.81" gradientTransform="scale(1.036822,0.964486)" gradientUnits="userSpaceOnUse" xlink:href="#linearGradient4750"/><radialGradient id="radialGradient4398" cx="18.634" cy="17.486" r="40.693" fx="18.934" fy="17.81" gradientTransform="scale(1.036822,0.964486)" gradientUnits="userSpaceOnUse" xlink:href="#linearGradient4750"/><radialGradient id="radialGradient4400" cx="18.634" cy="17.486" r="40.693" fx="18.934" fy="17.81" gradientTransform="scale(1.036822,0.964486)" gradientUnits="userSpaceOnUse" xlink:href="#linearGradient4750"/><radialGradient id="radialGradient4402" cx="18.634" cy="17.486" r="40.693" fx="18.934" fy="17.81" gradientTransform="scale(1.036822,0.964486)" gradientUnits="userSpaceOnUse" xlink:href="#linearGradient4750"/><radialGradient id="radialGradient4404" cx="18.634" cy="17.486" r="40.693" fx="18.934" fy="17.81" gradientTransform="scale(1.036822,0.964486)" gradientUnits="userSpaceOnUse" xlink:href="#linearGradient4750"/><radialGradient id="radialGradient4406" cx="18.634" cy="17.486" r="40.693" fx="18.934" fy="17.81" gradientTransform="scale(1.036822,0.964486)" gradientUnits="userSpaceOnUse" xlink:href="#linearGradient4750"/><radialGradient id="radialGradient4408" cx="18.634" cy="17.486" r="40.693" fx="18.934" fy="17.81" gradientTransform="scale(1.036822,0.964486)" gradientUnits="userSpaceOnUse" xlink:href="#linearGradient4750"/><radialGradient id="radialGradient4410" cx="18.634" cy="17.486" r="40.693" fx="18.934" fy="17.81" gradientTransform="scale(1.036822,0.964486)" gradientUnits="userSpaceOnUse" xlink:href="#linearGradient4750"/><radialGradient id="radialGradient4412" cx="18.634" cy="17.486" r="40.693" fx="18.934" fy="17.81" gradientTransform="scale(1.036822,0.964486)" gradientUnits="userSpaceOnUse" xlink:href="#linearGradient4750"/><radialGradient id="radialGradient4414" cx="18.634" cy="17.486" r="40.693" fx="18.934" fy="17.81" gradientTransform="scale(1.036822,0.964486)" gradientUnits="userSpaceOnUse" xlink:href="#linearGradient4750"/><radialGradient id="radialGradient4416" cx="18.634" cy="17.486" r="40.693" fx="18.934" fy="17.81" gradientTransform="scale(1.036822,0.964486)" gradientUnits="userSpaceOnUse" xlink:href="#linearGradient4750"/><radialGradient id="radialGradient4418" cx="18.634" cy="17.486" r="40.693" fx="18.934" fy="17.81" gradientTransform="scale(1.036822,0.964486)" gradientUnits="userSpaceOnUse" xlink:href="#linearGradient4750"/><radialGradient id="radialGradient4420" cx="18.634" cy="17.486" r="40.693" fx="18.934" fy="17.81" gradientTransform="scale(1.036822,0.964486)" gradientUnits="userSpaceOnUse" xlink:href="#linearGradient4750"/><radialGradient id="radialGradient4422" cx="18.634" cy="17.486" r="40.693" fx="18.934" fy="17.81" gradientTransform="scale(1.036822,0.964486)" gradientUnits="userSpaceOnUse" xlink:href="#linearGradient4750"/><radialGradient id="radialGradient4424" cx="18.634" cy="17.486" r="40.693" fx="18.934" fy="17.81" gradientTransform="scale(1.036822,0.964486)" gradientUnits="userSpaceOnUse" xlink:href="#linearGradient4750"/><radialGradient id="radialGradient4426" cx="18.634" cy="17.486" r="40.693" fx="18.934" fy="17.81" gradientTransform="scale(1.036822,0.964486)" gradientUnits="userSpaceOnUse" xlink:href="#linearGradient4750"/><radialGradient id="radialGradient4428" cx="18.634" cy="17.486" r="40.693" fx="18.934" fy="17.81" gradientTransform="scale(1.036822,0.964486)" gradientUnits="userSpaceOnUse" xlink:href="#linearGradient4750"/><radialGradient id="radialGradient4430" cx="18.634" cy="17.486" r="40.693" fx="18.934" fy="17.81" gradientTransform="scale(1.036822,0.964486)" gradientUnits="userSpaceOnUse" xlink:href="#linearGradient4750"/><radialGradient id="radialGradient4432" cx="18.634" cy="17.486" r="40.693" fx="18.934" fy="17.81" gradientTransform="scale(1.036822,0.964486)" gradientUnits="userSpaceOnUse" xlink:href="#linearGradient4750"/><radialGradient id="radialGradient4434" cx="18.634" cy="17.486" r="40.693" fx="18.934" fy="17.81" gradientTransform="scale(1.036822,0.964486)" gradientUnits="userSpaceOnUse" xlink:href="#linearGradient4750"/><radialGradient id="radialGradient4436" cx="18.634" cy="17.486" r="40.693" fx="18.934" fy="17.81" gradientTransform="scale(1.036822,0.964486)" gradientUnits="userSpaceOnUse" xlink:href="#linearGradient4750"/><radialGradient id="radialGradient4438" cx="18.634" cy="17.486" r="40.693" fx="18.934" fy="17.81" gradientTransform="scale(1.036822,0.964486)" gradientUnits="userSpaceOnUse" xlink:href="#linearGradient4750"/><radialGradient id="radialGradient4440" cx="18.634" cy="17.486" r="40.693" fx="18.934" fy="17.81" gradientTransform="scale(1.036822,0.964486)" gradientUnits="userSpaceOnUse" xlink:href="#linearGradient4750"/><radialGradient id="radialGradient4442" cx="15.601" cy="12.142" r="43.527" fx="15.601" fy="12.142" gradientTransform="scale(0.999989,1.000011)" gradientUnits="userSpaceOnUse" xlink:href="#linearGradient4126"/><linearGradient id="linearGradient3008" x1="16.875" x2="27.901" y1="22.852" y2="34.977" gradientUnits="userSpaceOnUse" xlink:href="#linearGradient7916"/></defs><metadata id="metadata6436"/><g id="layer1" transform="translate(0,-16)"><g id="g3003" transform="matrix(0.73929114,0,0,0.73929114,-1.7954406,13.540674)"><path id="text1314" d="m 27.514356,28.359472 12.119089,0.116071 0,-6.995324 -12.11016,0 -7.020739,-0.01786 -11.9583755,0.02679 -0.035714,6.968539 12.0030185,0.01786 7.002881,-0.116071 z" style="font-size:59.90107727px;font-style:normal;font-variant:normal;font-weight:700;font-stretch:normal;text-align:start;line-height:125%;writing-mode:lr-tb;text-anchor:start;fill:red;fill-opacity:1;stroke:red;stroke-width:1.33854115;stroke-linecap:butt;stroke-linejoin:miter;stroke-miterlimit:4;stroke-opacity:1;stroke-dasharray:none;font-family:Bitstream Vera Sans"/><path id="path7076" d="m 38.579429,27.484113 0.0089,-5.008804 -29.0615707,0.01786 -0.026786,4.97309 29.0794287,0.01786 z" style="font-size:59.90107727px;font-style:normal;font-variant:normal;font-weight:700;font-stretch:normal;text-align:start;line-height:125%;writing-mode:lr-tb;text-anchor:start;opacity:.40860213;fill:#faa;fill-opacity:1;stroke:url(#linearGradient3008);stroke-width:1.0000006px;stroke-linecap:butt;stroke-linejoin:miter;stroke-opacity:1;font-family:Bitstream Vera Sans"/><path id="path7914" d="m 9,25 c 0,1.9375 30.125,-0.9375 30.125,0 l 0,-3 L 9,22 9,25 z" style="opacity:.31182796;fill:#fff;fill-opacity:1;fill-rule:evenodd;stroke:none"/></g><g id="g2961" transform="matrix(0.3667831,0,0,0.3667831,14.89774,31.064745)"><g id="g4271" transform="translate(0,0.63630253)"><path style="fill:#999;fill-opacity:1;fill-rule:nonzero;stroke:#5a5a5a;stroke-miterlimit:4;stroke-opacity:1;stroke-width:2.04480523;stroke-dasharray:none" id="path3214" d="m 43.959853,23.485499 c 0,10.709718 -8.682103,19.391723 -19.390348,19.391723 -10.709226,0 -19.3908387,-8.682103 -19.3908387,-19.391723 0,-10.709227 8.6816127,-19.3903473 19.3908387,-19.3903473 10.708245,0 19.390348,8.6811203 19.390348,19.3903473 l 0,0 z"/><path style="opacity:.42159382;fill:url(#radialGradient4358);fill-opacity:1;stroke:none" id="path4348" d="m 30.708637,15.271057 c 0,5.132605 -5.788937,9.293404 -12.929952,9.293404 -7.141016,0 -12.929953,-4.160799 -12.929953,-9.293404 0,-5.132605 5.788937,-9.2934035 12.929953,-9.2934035 7.141015,0 12.929952,4.1607985 12.929952,9.2934035 z" transform="matrix(0.835938,0,0,1,9.886868,0)"/><g id="g4136" transform="matrix(0.982371,0,0,0.982371,0.121079,0.232914)" style="fill:#000;fill-opacity:.71345029;fill-rule:nonzero;stroke:none"><g id="g4138"><g id="g4142"><path id="path4144" d="m 44.0713,20.7144 c 0,0.2627 0,0 0,0 l -0.5449,0.6172 c -0.334,-0.3936 -0.709,-0.7246 -1.0898,-1.0703 l -0.8359,0.123 -0.7637,-0.8633 0,1.0684 0.6543,0.4951 0.4355,0.4932 0.582,-0.6582 c 0.1465,0.2744 0.291,0.5488 0.4365,0.8232 l 0,0.8223 -0.6553,0.7402 -1.1992,0.8232 -0.9082,0.9063 -0.582,-0.6602 0.291,-0.7402 -0.5811,-0.6582 -0.9814,-2.0977 -0.8359,-0.9453 -0.2188,0.2461 0.3281,1.1934 0.6172,0.6992 c 0.3525,1.0176 0.7012,1.9902 1.1641,2.9629 0.7178,0 1.3945,-0.0762 2.1074,-0.166 l 0,0.5762 -0.8721,2.1392 -0.7998,0.9043 -0.6543,1.4004 c 0,0.7676 0,1.5352 0,2.3027 l 0.2188,0.9063 -0.3633,0.4102 -0.8008,0.4941 -0.8359,0.6992 0.6914,0.7813 -0.9453,0.8242 0.1816,0.5332 -1.418,1.6055 -0.9443,0 -0.7998,0.4941 -0.5098,0 0,-0.6582 -0.2168,-1.3184 c -0.2813,-0.8262 -0.5742,-1.6465 -0.8721,-2.4668 0,-0.6055 0.0361,-1.2051 0.0723,-1.8105 l 0.3643,-0.8223 -0.5098,-0.9883 0.0371,-1.3574 -0.6914,-0.7813 0.3457,-1.1309 -0.5625,-0.6382 -0.9824,0 -0.3271,-0.3701 -0.9814,0.6177 -0.3994,-0.4536 -0.9092,0.7817 c -0.6172,-0.6997 -1.2354,-1.3989 -1.8535,-2.0981 l -0.7266,-1.7285 0.6543,-0.9863 -0.3633,-0.4111 0.7988,-1.8936 c 0.6563,-0.8164 1.3418,-1.5996 2.0352,-2.3857 l 1.2363,-0.3291 1.3809,-0.1641 0.9453,0.2471 1.3447,1.3564 0.4727,-0.5342 0.6533,-0.082 1.2363,0.4111 0.9453,0 0.6543,-0.5762 0.291,-0.4111 -0.6553,-0.4111 -1.0908,-0.082 c -0.3027,-0.4199 -0.584,-0.8613 -0.9434,-1.2344 l -0.3643,0.1641 -0.1455,1.0703 -0.6543,-0.7402 -0.1445,-0.8242 -0.7266,-0.5742 -0.292,0 0.7275,0.8223 -0.291,0.7402 -0.5811,0.1641 0.3633,-0.7402 -0.6553,-0.3281 -0.5801,-0.6582 -1.0918,0.2461 -0.1445,0.3281 -0.6543,0.4121 -0.3633,0.9053 -0.9082,0.4521 -0.4004,-0.4521 -0.4355,0 0,-1.4814 0.9453,-0.4941 0.7266,0 -0.1465,-0.5752 -0.5801,-0.5762 0.9805,-0.2061 0.5449,-0.6162 0.4355,-0.7412 0.8008,0 -0.2188,-0.5752 0.5098,-0.3291 0,0.6582 1.0898,0.2461 1.0898,-0.9043 0.0732,-0.4121 0.9443,-0.6577 c -0.3418,0.0425 -0.6836,0.0737 -1.0176,0.1646 l 0,-0.7411 0.3633,-0.8228 -0.3633,0 -0.7984,0.7402 -0.2188,0.4116 0.2188,0.5767 -0.3643,0.9863 -0.5811,-0.3291 -0.5078,-0.5752 -0.8008,0.5752 -0.291,-1.3159 1.3809,-0.9048 0,-0.4941 0.873,-0.5757 1.3809,-0.3296 0.9453,0.3296 1.7441,0.3291 -0.4355,0.4932 -0.9453,0 0.9453,0.9873 0.7266,-0.8223 0.2207,-0.3618 c 0,0 2.7871,2.498 4.3799,5.2305 1.5928,2.7334 2.3408,5.9551 2.3408,6.6094 z"/></g></g><g id="g4146"><g id="g4150"><path id="path4152" d="m 26.0703,9.2363 -0.0732,0.4932 0.5098,0.3291 0.8711,-0.5757 -0.4355,-0.4937 -0.582,0.3296 -0.29,-0.0825"/></g></g><g id="g4154"><g id="g4158"><path id="path4160" d="m 26.8701,5.8633 -1.8906,-0.7407 -2.1797,0.2466 -2.6904,0.7402 -0.5088,0.4941 1.6719,1.1514 0,0.6582 -0.6543,0.6582 0.873,1.729 0.5801,-0.3301 0.7285,-1.1514 c 1.123,-0.3472 2.1299,-0.7407 3.1973,-1.2344 l 0.873,-2.2212"/></g></g><g id="g4162"><g id="g4166"><path id="path4168" d="m 28.833,12.7749 -0.291,-0.7412 -0.5098,0.165 0.1465,0.9043 0.6543,-0.3281"/></g></g><g id="g4170"><g id="g4174"><path id="path4176" d="m 29.123,12.6089 -0.1455,0.9883 0.7998,-0.165 0.5811,-0.5752 -0.5088,-0.4941 C 29.6787,11.9078 29.4824,11.483 29.2685,11.0465 l -0.4355,0 0,0.4932 0.29,0.3291 0,0.7402"/></g></g><g id="g4178"><g id="g4182"><path id="path4184" d="m 18.3652,28.2422 -0.582,-1.1523 -1.0903,-0.2466 -0.5815,-1.5625 -1.4536,0.1641 -1.2354,-0.9043 -1.3091,1.1514 0,0.1816 c -0.396,-0.1143 -0.8828,-0.1299 -1.2354,-0.3467 l -0.291,-0.8223 0,-0.9053 -0.8721,0.082 c 0.0728,-0.5762 0.145,-1.1514 0.2183,-1.7275 l -0.5093,0 -0.5083,0.6582 -0.5093,0.2461 -0.7271,-0.4102 -0.0728,-0.9053 0.1455,-0.9873 1.0908,-0.8223 0.8721,0 0.145,-0.4941 1.0903,0.2461 0.7998,0.9883 0.1455,-1.6465 1.3813,-1.1514 0.5088,-1.2344 1.0176,-0.4111 0.5815,-0.8223 1.3081,-0.248 0.6548,-0.9863 c -0.6543,0 -1.3086,0 -1.9629,0 l 1.2358,-0.5762 0.8716,0 1.2363,-0.4121 0.1455,-0.4922 -0.4365,-0.4121 -0.5088,-0.165 0.1455,-0.4932 -0.3633,-0.7402 -0.8726,0.3281 0.1455,-0.6577 -1.0176,-0.5762 -0.7993,1.3979 0.0723,0.4941 -0.7993,0.3301 -0.5093,1.0693 -0.2178,-0.9873 -1.3813,-0.5762 -0.2183,-0.7402 1.8174,-1.0703 0.7998,-0.7402 0.0728,-0.9048 -0.436,-0.2471 -0.5815,-0.0825 -0.3633,0.9053 c 0,0 -0.6079,0.1191 -0.7642,0.1577 -1.9961,1.8394 -6.0293,5.8101 -6.9663,13.3062 0.0371,0.1738 0.6792,1.1816 0.6792,1.1816 l 1.5264,0.9043 1.5264,0.4121 0.6548,0.8232 1.0171,0.7402 0.5815,-0.082 0.436,0.1963 0,0.1328 -0.5811,1.563 -0.4365,0.6582 0.1455,0.3301 -0.3633,1.2324 1.3086,2.3867 1.3081,1.1523 0.582,0.8223 -0.0732,1.7285 0.4365,0.9863 -0.4365,1.8926 c 0,0 -0.0342,-0.0117 0.0215,0.1777 0.0562,0.1895 2.3291,1.4512 2.4736,1.3438 0.144,-0.1094 0.2671,-0.2051 0.2671,-0.2051 l -0.145,-0.4102 0.5811,-0.5762 0.2183,-0.5762 0.9453,-0.3301 0.7266,-1.8105 -0.2178,-0.4922 0.5078,-0.7402 1.0908,-0.248 0.582,-1.3164 -0.1455,-1.6445 0.8721,-1.2344 0.1455,-1.2344 C 20.7331,29.4607 19.5495,28.8513 18.365,28.242"/></g></g><g id="g4186"><g id="g4190"><path id="path4192" d="m 16.7656,9.5649 0.7266,0.4937 0.582,0 0,-0.5757 -0.7266,-0.3291 -0.582,0.4111"/></g></g><g id="g4194"><g id="g4198"><path id="path4200" d="m 14.876,8.9072 -0.3638,0.9048 0.7271,0 0.3638,-0.8228 C 15.9166,8.7675 16.2286,8.5444 16.5479,8.331 l 0.7271,0.2471 c 0.4844,0.3291 0.9688,0.6582 1.4536,0.9868 L 19.4561,8.9072 18.6558,8.5781 18.292,7.8374 16.9111,7.6728 16.8383,7.2612 16.184,7.4262 15.8936,8.002 15.5298,7.2613 l -0.145,0.3291 0.0728,0.8228 -0.5816,0.494"/></g></g><g id="g4202"><g style="opacity:.75" id="g4204"><path id="path4206"/></g><g id="g4208"><path id="path4210"/></g></g><g id="g4212"><g style="opacity:.75" id="g4214"><path id="path4216"/></g><g id="g4218"><path id="path4220"/></g></g><g id="g4222"><g id="g4226"><path id="path4228" d="M 17.4922,6.8496 17.856,6.521 18.5831,6.3564 c 0.498,-0.2422 0.998,-0.4053 1.5264,-0.5762 l -0.29,-0.4937 -0.9385,0.1348 -0.4434,0.4419 -0.731,0.106 -0.6499,0.3052 -0.3159,0.1528 -0.1929,0.2583 0.9443,0.1641"/></g></g><g id="g4230"><g id="g4234"><path id="path4236" d="m 18.7285,14.6665 0.4365,-0.6582 -0.6548,-0.4932 0.2183,1.1514"/></g></g></g><g id="g3216" transform="matrix(0.982371,0,0,0.982371,-0.08095179,0.030883)" style="color:#000;fill:url(#radialGradient4440);fill-opacity:1;fill-rule:nonzero;stroke:none;stroke-width:1.01794541;marker:none;visibility:visible;display:inline;overflow:visible"><g id="g3218" style="color:#000;fill:url(#radialGradient4364);marker:none;visibility:visible;display:inline;overflow:visible"><g id="g3222" style="color:#000;fill:url(#radialGradient4362);marker:none;visibility:visible;display:inline;overflow:visible"><path id="path3224" d="m 44.0713,20.7144 c 0,0.2627 0,0 0,0 l -0.5449,0.6172 c -0.334,-0.3936 -0.709,-0.7246 -1.0898,-1.0703 l -0.8359,0.123 -0.7637,-0.8633 0,1.0684 0.6543,0.4951 0.4355,0.4932 0.582,-0.6582 c 0.1465,0.2744 0.291,0.5488 0.4365,0.8232 l 0,0.8223 -0.6553,0.7402 -1.1992,0.8232 -0.9082,0.9063 -0.582,-0.6602 0.291,-0.7402 -0.5811,-0.6582 -0.9814,-2.0977 -0.8359,-0.9453 -0.2188,0.2461 0.3281,1.1934 0.6172,0.6992 c 0.3525,1.0176 0.7012,1.9902 1.1641,2.9629 0.7178,0 1.3945,-0.0762 2.1074,-0.166 l 0,0.5762 -0.8721,2.1392 -0.7998,0.9043 -0.6543,1.4004 c 0,0.7676 0,1.5352 0,2.3027 l 0.2188,0.9063 -0.3633,0.4102 -0.8008,0.4941 -0.8359,0.6992 0.6914,0.7813 -0.9453,0.8242 0.1816,0.5332 -1.418,1.6055 -0.9443,0 -0.7998,0.4941 -0.5098,0 0,-0.6582 -0.2168,-1.3184 c -0.2813,-0.8262 -0.5742,-1.6465 -0.8721,-2.4668 0,-0.6055 0.0361,-1.2051 0.0723,-1.8105 l 0.3643,-0.8223 -0.5098,-0.9883 0.0371,-1.3574 -0.6914,-0.7813 0.3457,-1.1309 -0.5625,-0.6382 -0.9824,0 -0.3271,-0.3701 -0.9814,0.6177 -0.3994,-0.4536 -0.9092,0.7817 c -0.6172,-0.6997 -1.2354,-1.3989 -1.8535,-2.0981 l -0.7266,-1.7285 0.6543,-0.9863 -0.3633,-0.4111 0.7988,-1.8936 c 0.6563,-0.8164 1.3418,-1.5996 2.0352,-2.3857 l 1.2363,-0.3291 1.3809,-0.1641 0.9453,0.2471 1.3447,1.3564 0.4727,-0.5342 0.6533,-0.082 1.2363,0.4111 0.9453,0 0.6543,-0.5762 0.291,-0.4111 -0.6553,-0.4111 -1.0908,-0.082 c -0.3027,-0.4199 -0.584,-0.8613 -0.9434,-1.2344 l -0.3643,0.1641 -0.1455,1.0703 -0.6543,-0.7402 -0.1445,-0.8242 -0.7266,-0.5742 -0.292,0 0.7275,0.8223 -0.291,0.7402 -0.5811,0.1641 0.3633,-0.7402 -0.6553,-0.3281 -0.5801,-0.6582 -1.0918,0.2461 -0.1445,0.3281 -0.6543,0.4121 -0.3633,0.9053 -0.9082,0.4521 -0.4004,-0.4521 -0.4355,0 0,-1.4814 0.9453,-0.4941 0.7266,0 -0.1465,-0.5752 -0.5801,-0.5762 0.9805,-0.2061 0.5449,-0.6162 0.4355,-0.7412 0.8008,0 -0.2188,-0.5752 0.5098,-0.3291 0,0.6582 1.0898,0.2461 1.0898,-0.9043 0.0732,-0.4121 0.9443,-0.6577 c -0.3418,0.0425 -0.6836,0.0737 -1.0176,0.1646 l 0,-0.7411 0.3633,-0.8228 -0.3633,0 -0.7984,0.7402 -0.2188,0.4116 0.2188,0.5767 -0.3643,0.9863 -0.5811,-0.3291 -0.5078,-0.5752 -0.8008,0.5752 -0.291,-1.3159 1.3809,-0.9048 0,-0.4941 0.873,-0.5757 1.3809,-0.3296 0.9453,0.3296 1.7441,0.3291 -0.4355,0.4932 -0.9453,0 0.9453,0.9873 0.7266,-0.8223 0.2207,-0.3618 c 0,0 2.7871,2.498 4.3799,5.2305 1.5928,2.7334 2.3408,5.9551 2.3408,6.6094 z" style="color:#000;fill:url(#radialGradient4360);marker:none;visibility:visible;display:inline;overflow:visible"/></g></g><g id="g3226" style="color:#000;fill:url(#radialGradient4370);marker:none;visibility:visible;display:inline;overflow:visible"><g id="g3230" style="color:#000;fill:url(#radialGradient4368);marker:none;visibility:visible;display:inline;overflow:visible"><path id="path3232" d="m 26.0703,9.2363 -0.0732,0.4932 0.5098,0.3291 0.8711,-0.5757 -0.4355,-0.4937 -0.582,0.3296 -0.29,-0.0825" style="color:#000;fill:url(#radialGradient4366);marker:none;visibility:visible;display:inline;overflow:visible"/></g></g><g id="g3234" style="color:#000;fill:url(#radialGradient4376);marker:none;visibility:visible;display:inline;overflow:visible"><g id="g3238" style="color:#000;fill:url(#radialGradient4374);marker:none;visibility:visible;display:inline;overflow:visible"><path id="path3240" d="m 26.8701,5.8633 -1.8906,-0.7407 -2.1797,0.2466 -2.6904,0.7402 -0.5088,0.4941 1.6719,1.1514 0,0.6582 -0.6543,0.6582 0.873,1.729 0.5801,-0.3301 0.7285,-1.1514 c 1.123,-0.3472 2.1299,-0.7407 3.1973,-1.2344 l 0.873,-2.2212" style="color:#000;fill:url(#radialGradient4372);marker:none;visibility:visible;display:inline;overflow:visible"/></g></g><g id="g3242" style="color:#000;fill:url(#radialGradient4382);marker:none;visibility:visible;display:inline;overflow:visible"><g id="g3246" style="color:#000;fill:url(#radialGradient4380);marker:none;visibility:visible;display:inline;overflow:visible"><path id="path3248" d="m 28.833,12.7749 -0.291,-0.7412 -0.5098,0.165 0.1465,0.9043 0.6543,-0.3281" style="color:#000;fill:url(#radialGradient4378);marker:none;visibility:visible;display:inline;overflow:visible"/></g></g><g id="g3250" style="color:#000;fill:url(#radialGradient4388);marker:none;visibility:visible;display:inline;overflow:visible"><g id="g3254" style="color:#000;fill:url(#radialGradient4386);marker:none;visibility:visible;display:inline;overflow:visible"><path id="path3256" d="m 29.123,12.6089 -0.1455,0.9883 0.7998,-0.165 0.5811,-0.5752 -0.5088,-0.4941 C 29.6787,11.9078 29.4824,11.483 29.2685,11.0465 l -0.4355,0 0,0.4932 0.29,0.3291 0,0.7402" style="color:#000;fill:url(#radialGradient4384);marker:none;visibility:visible;display:inline;overflow:visible"/></g></g><g id="g3258" style="color:#000;fill:url(#radialGradient4394);marker:none;visibility:visible;display:inline;overflow:visible"><g id="g3262" style="color:#000;fill:url(#radialGradient4392);marker:none;visibility:visible;display:inline;overflow:visible"><path id="path3264" d="m 18.3652,28.2422 -0.582,-1.1523 -1.0903,-0.2466 -0.5815,-1.5625 -1.4536,0.1641 -1.2354,-0.9043 -1.3091,1.1514 0,0.1816 c -0.396,-0.1143 -0.8828,-0.1299 -1.2354,-0.3467 l -0.291,-0.8223 0,-0.9053 -0.8721,0.082 c 0.0728,-0.5762 0.145,-1.1514 0.2183,-1.7275 l -0.5093,0 -0.5083,0.6582 -0.5093,0.2461 -0.7271,-0.4102 -0.0728,-0.9053 0.1455,-0.9873 1.0908,-0.8223 0.8721,0 0.145,-0.4941 1.0903,0.2461 0.7998,0.9883 0.1455,-1.6465 1.3813,-1.1514 0.5088,-1.2344 1.0176,-0.4111 0.5815,-0.8223 1.3081,-0.248 0.6548,-0.9863 c -0.6543,0 -1.3086,0 -1.9629,0 l 1.2358,-0.5762 0.8716,0 1.2363,-0.4121 0.1455,-0.4922 -0.4365,-0.4121 -0.5088,-0.165 0.1455,-0.4932 -0.3633,-0.7402 -0.8726,0.3281 0.1455,-0.6577 -1.0176,-0.5762 -0.7993,1.3979 0.0723,0.4941 -0.7993,0.3301 -0.5093,1.0693 -0.2178,-0.9873 -1.3813,-0.5762 -0.2183,-0.7402 1.8174,-1.0703 0.7998,-0.7402 0.0728,-0.9048 -0.436,-0.2471 -0.5815,-0.0825 -0.3633,0.9053 c 0,0 -0.6079,0.1191 -0.7642,0.1577 -1.9961,1.8394 -6.0293,5.8101 -6.9663,13.3062 0.0371,0.1738 0.6792,1.1816 0.6792,1.1816 l 1.5264,0.9043 1.5264,0.4121 0.6548,0.8232 1.0171,0.7402 0.5815,-0.082 0.436,0.1963 0,0.1328 -0.5811,1.563 -0.4365,0.6582 0.1455,0.3301 -0.3633,1.2324 1.3086,2.3867 1.3081,1.1523 0.582,0.8223 -0.0732,1.7285 0.4365,0.9863 -0.4365,1.8926 c 0,0 -0.0342,-0.0117 0.0215,0.1777 0.0562,0.1895 2.3291,1.4512 2.4736,1.3438 0.144,-0.1094 0.2671,-0.2051 0.2671,-0.2051 l -0.145,-0.4102 0.5811,-0.5762 0.2183,-0.5762 0.9453,-0.3301 0.7266,-1.8105 -0.2178,-0.4922 0.5078,-0.7402 1.0908,-0.248 0.582,-1.3164 -0.1455,-1.6445 0.8721,-1.2344 0.1455,-1.2344 C 20.7331,29.4607 19.5495,28.8513 18.365,28.242" style="color:#000;fill:url(#radialGradient4390);marker:none;visibility:visible;display:inline;overflow:visible"/></g></g><g id="g3266" style="color:#000;fill:url(#radialGradient4400);marker:none;visibility:visible;display:inline;overflow:visible"><g id="g3270" style="color:#000;fill:url(#radialGradient4398);marker:none;visibility:visible;display:inline;overflow:visible"><path id="path3272" d="m 16.7656,9.5649 0.7266,0.4937 0.582,0 0,-0.5757 -0.7266,-0.3291 -0.582,0.4111" style="color:#000;fill:url(#radialGradient4396);marker:none;visibility:visible;display:inline;overflow:visible"/></g></g><g id="g3274" style="color:#000;fill:url(#radialGradient4406);marker:none;visibility:visible;display:inline;overflow:visible"><g id="g3278" style="color:#000;fill:url(#radialGradient4404);marker:none;visibility:visible;display:inline;overflow:visible"><path id="path3280" d="m 14.876,8.9072 -0.3638,0.9048 0.7271,0 0.3638,-0.8228 C 15.9166,8.7675 16.2286,8.5444 16.5479,8.331 l 0.7271,0.2471 c 0.4844,0.3291 0.9688,0.6582 1.4536,0.9868 L 19.4561,8.9072 18.6558,8.5781 18.292,7.8374 16.9111,7.6728 16.8383,7.2612 16.184,7.4262 15.8936,8.002 15.5298,7.2613 l -0.145,0.3291 0.0728,0.8228 -0.5816,0.494" style="color:#000;fill:url(#radialGradient4402);marker:none;visibility:visible;display:inline;overflow:visible"/></g></g><g id="g3282" style="color:#000;fill:url(#radialGradient4416);marker:none;visibility:visible;display:inline;overflow:visible"><g style="opacity:.75;color:#000;fill:url(#radialGradient4410);marker:none;visibility:visible;display:inline;overflow:visible" id="g3284"><path style="color:#000;fill:url(#radialGradient4408);marker:none;visibility:visible;display:inline;overflow:visible" id="path3286"/></g><g id="g3288" style="color:#000;fill:url(#radialGradient4414);marker:none;visibility:visible;display:inline;overflow:visible"><path id="path3290" style="color:#000;fill:url(#radialGradient4412);marker:none;visibility:visible;display:inline;overflow:visible"/></g></g><g id="g3292" style="color:#000;fill:url(#radialGradient4426);marker:none;visibility:visible;display:inline;overflow:visible"><g style="opacity:.75;color:#000;fill:url(#radialGradient4420);marker:none;visibility:visible;display:inline;overflow:visible" id="g3294"><path style="color:#000;fill:url(#radialGradient4418);marker:none;visibility:visible;display:inline;overflow:visible" id="path3296"/></g><g id="g3298" style="color:#000;fill:url(#radialGradient4424);marker:none;visibility:visible;display:inline;overflow:visible"><path id="path3300" style="color:#000;fill:url(#radialGradient4422);marker:none;visibility:visible;display:inline;overflow:visible"/></g></g><g id="g3302" style="color:#000;fill:url(#radialGradient4432);marker:none;visibility:visible;display:inline;overflow:visible"><g id="g3306" style="color:#000;fill:url(#radialGradient4430);marker:none;visibility:visible;display:inline;overflow:visible"><path id="path3308" d="M 17.4922,6.8496 17.856,6.521 18.5831,6.3564 c 0.498,-0.2422 0.998,-0.4053 1.5264,-0.5762 l -0.29,-0.4937 -0.9385,0.1348 -0.4434,0.4419 -0.731,0.106 -0.6499,0.3052 -0.3159,0.1528 -0.1929,0.2583 0.9443,0.1641" style="color:#000;fill:url(#radialGradient4428);marker:none;visibility:visible;display:inline;overflow:visible"/></g></g><g id="g3310" style="color:#000;fill:url(#radialGradient4438);marker:none;visibility:visible;display:inline;overflow:visible"><g id="g3314" style="color:#000;fill:url(#radialGradient4436);marker:none;visibility:visible;display:inline;overflow:visible"><path id="path3316" d="m 18.7285,14.6665 0.4365,-0.6582 -0.6548,-0.4932 0.2183,1.1514" style="color:#000;fill:url(#radialGradient4434);marker:none;visibility:visible;display:inline;overflow:visible"/></g></g></g><path style="fill:none;stroke:url(#radialGradient4442);stroke-miterlimit:4;stroke-opacity:1" id="path4122" d="m 42.975093,23.485534 c 0,10.16582 -8.241178,18.406906 -18.4056,18.406906 -10.165354,0 -18.4060669,-8.241179 -18.4060669,-18.406906 0,-10.165354 8.2407129,-18.4056 18.4060669,-18.4056 10.164422,0 18.4056,8.240246 18.4056,18.4056 l 0,0 z"/></g></g></g></svg>