<svg xmlns="http://www.w3.org/2000/svg" xmlns:svg="http://www.w3.org/2000/svg" xmlns:xlink="http://www.w3.org/1999/xlink" id="svg6431" width="32" height="32" version="1.1"><defs id="defs6433"><linearGradient id="linearGradient13653" x1="22.308" x2="35.785" y1="18.992" y2="39.498" gradientTransform="matrix(1.067236,0,0,0.989276,4.391684,4.035227)" gradientUnits="userSpaceOnUse" xlink:href="#linearGradient15218"/><linearGradient id="linearGradient15218"><stop style="stop-color:#f0f0ef;stop-opacity:1" id="stop15220" offset="0"/><stop id="stop2269" offset=".599" style="stop-color:#e8e8e8;stop-opacity:1"/><stop id="stop2267" offset=".828" style="stop-color:#fff;stop-opacity:1"/><stop style="stop-color:#d8d8d3;stop-opacity:1" id="stop15222" offset="1"/></linearGradient><linearGradient id="linearGradient13651" x1="26.076" x2="30.811" y1="26.697" y2="42.007" gradientTransform="matrix(0.999421,0,0,1,5.991319,4.033411)" gradientUnits="userSpaceOnUse" xlink:href="#linearGradient2259"/><linearGradient id="linearGradient2259"><stop style="stop-color:#fff;stop-opacity:1" id="stop2261" offset="0"/><stop style="stop-color:#fff;stop-opacity:0" id="stop2263" offset="1"/></linearGradient><linearGradient id="linearGradient2230" x1="35.997" x2="33.665" y1="40.458" y2="37.771" gradientTransform="translate(6.161836,4.033411)" gradientUnits="userSpaceOnUse" xlink:href="#linearGradient2224"/><linearGradient id="linearGradient2224"><stop style="stop-color:#7c7c7c;stop-opacity:1" id="stop2226" offset="0"/><stop style="stop-color:#b8b8b8;stop-opacity:1" id="stop2228" offset="1"/></linearGradient><linearGradient id="linearGradient2257" x1="33.396" x2="34.17" y1="36.921" y2="38.07" gradientTransform="translate(6.161836,3.658411)" gradientUnits="userSpaceOnUse" xlink:href="#linearGradient2251"/><linearGradient id="linearGradient2251"><stop style="stop-color:#fff;stop-opacity:1" id="stop2253" offset="0"/><stop style="stop-color:#fff;stop-opacity:0" id="stop2255" offset="1"/></linearGradient><linearGradient id="linearGradient2894" x1="16.875" x2="27.901" y1="22.852" y2="34.977" gradientUnits="userSpaceOnUse" xlink:href="#linearGradient7916-1"/><linearGradient id="linearGradient7916-1"><stop style="stop-color:#fff;stop-opacity:1" id="stop7918-7" offset="0"/><stop style="stop-color:#fff;stop-opacity:.34020618" id="stop7920-4" offset="1"/></linearGradient></defs><metadata id="metadata6436"/><g id="layer1" transform="translate(0,-16)"><g id="g2889" transform="matrix(0.73929114,0,0,0.73929114,-1.7954406,13.540674)"><path id="text1314" d="m 27.514356,28.359472 12.119089,0.116071 0,-6.995324 -12.11016,0 -7.020739,-0.01786 -11.9583755,0.02679 -0.035714,6.968539 12.0030185,0.01786 7.002881,-0.116071 z" style="font-size:59.90107727px;font-style:normal;font-variant:normal;font-weight:700;font-stretch:normal;text-align:start;line-height:125%;writing-mode:lr-tb;text-anchor:start;fill:#0f0;fill-opacity:1;stroke:#00b200;stroke-width:1.33854115;stroke-linecap:butt;stroke-linejoin:miter;stroke-miterlimit:4;stroke-opacity:1;stroke-dasharray:none;font-family:Bitstream Vera Sans"/><path id="path7076" d="m 38.579429,27.484113 0.0089,-5.008804 -29.0615707,0.01786 -0.026786,4.97309 29.0794287,0.01786 z" style="font-size:59.90107727px;font-style:normal;font-variant:normal;font-weight:700;font-stretch:normal;text-align:start;line-height:125%;writing-mode:lr-tb;text-anchor:start;opacity:.40860213;fill:#00a900;fill-opacity:1;stroke:url(#linearGradient2894);stroke-width:1.0000006px;stroke-linecap:butt;stroke-linejoin:miter;stroke-opacity:1;font-family:Bitstream Vera Sans"/><path id="path7914" d="m 9,25 c 0,1.9375 30.125,-0.9375 30.125,0 l 0,-3 L 9,22 9,25 z" style="opacity:.31182796;fill:#fff;fill-opacity:1;fill-rule:evenodd;stroke:none"/></g><g id="g12863" transform="matrix(0.39806593,0,0,0.39806593,12.40427,27.948248)"><path style="fill:url(#linearGradient13653);fill-opacity:1;fill-rule:evenodd;stroke:#888a85;stroke-width:1.88410997;stroke-linecap:butt;stroke-linejoin:miter;stroke-miterlimit:4;stroke-opacity:1;stroke-dasharray:none;stroke-dashoffset:0" id="rect12413" d="m 15.072946,10.500852 29.856385,0 c 0.31574,0 0.569926,0.253093 0.569926,0.567472 l 0,27.167362 c 0,2.476452 -6.87981,8.303087 -9.267932,8.303087 l -21.158379,0 c -0.31574,0 -0.569926,-0.253092 -0.569926,-0.567473 l 0,-34.902976 c 0,-0.314379 0.254186,-0.567472 0.569926,-0.567472 z"/><rect id="rect15244" width="28.997" height="34.041" x="15.503" y="11.5" rx="0" ry="0" style="fill:none;stroke:url(#linearGradient13651);stroke-width:1.00000083;stroke-linecap:butt;stroke-linejoin:miter;stroke-miterlimit:4;stroke-opacity:1;stroke-dasharray:none;stroke-dashoffset:0"/><path id="path2210" d="m 36.220918,46.536966 c 2.030418,0.329898 9.588793,-4.529929 9.284411,-8.497844 -1.563262,2.423097 -4.758522,1.286738 -8.86728,1.445748 0,0 0.395369,6.552096 -0.417131,7.052096 z" style="color:#000;fill:url(#linearGradient2230);fill-opacity:1;fill-rule:evenodd;stroke:#868a84;stroke-width:1.00000024;stroke-linecap:butt;stroke-linejoin:miter;stroke-miterlimit:4;stroke-opacity:1;stroke-dasharray:none;stroke-dashoffset:0;marker:none;visibility:visible;display:inline;overflow:visible"/><path style="opacity:.36931817;color:#000;fill:none;stroke:url(#linearGradient2257);stroke-width:.99999982;stroke-linecap:butt;stroke-linejoin:miter;stroke-miterlimit:4;stroke-opacity:1;stroke-dasharray:none;stroke-dashoffset:0;marker:none;visibility:visible;display:inline;overflow:visible" id="path2247" d="m 37.671355,44.345464 c 1.369779,-0.683829 4.428249,-2.146465 5.72763,-4.027469 -1.596094,0.680055 -2.94781,0.209496 -5.702334,0.190405 0,0 0.162322,3.062094 -0.0253,3.837064 z"/><rect id="rect2271" width="21" height="2" x="20" y="19.033" style="opacity:.1704545;color:#000;fill:#000;fill-opacity:1;fill-rule:evenodd;stroke:none;stroke-width:1;marker:none;visibility:visible;display:inline;overflow:visible"/><rect style="opacity:.1704545;color:#000;fill:#000;fill-opacity:1;fill-rule:evenodd;stroke:none;stroke-width:1;marker:none;visibility:visible;display:inline;overflow:visible" id="rect2273" width="19.992" height="2" x="20" y="23.033"/><rect id="rect2275" width="17.977" height="2" x="20" y="27.033" style="opacity:.1704545;color:#000;fill:#000;fill-opacity:1;fill-rule:evenodd;stroke:none;stroke-width:1;marker:none;visibility:visible;display:inline;overflow:visible"/><rect style="opacity:.1704545;color:#000;fill:#000;fill-opacity:1;fill-rule:evenodd;stroke:none;stroke-width:1;marker:none;visibility:visible;display:inline;overflow:visible" id="rect2277" width="21" height="2" x="20" y="31.033"/></g></g></svg>