<svg xmlns="http://www.w3.org/2000/svg" xmlns:svg="http://www.w3.org/2000/svg" xmlns:xlink="http://www.w3.org/1999/xlink" id="svg6431" width="32" height="32" version="1.1"><defs id="defs6433"><linearGradient id="linearGradient3957"><stop style="stop-color:#fffeff;stop-opacity:.33333334" id="stop3959" offset="0"/><stop style="stop-color:#fffeff;stop-opacity:.21568628" id="stop3961" offset="1"/></linearGradient><linearGradient id="linearGradient2479"><stop style="stop-color:#ffe69b;stop-opacity:1" id="stop2481" offset="0"/><stop style="stop-color:#fff;stop-opacity:1" id="stop2483" offset="1"/></linearGradient><linearGradient id="linearGradient3055" x1="43.936" x2="20.065" y1="53.836" y2="-8.563" gradientUnits="userSpaceOnUse" xlink:href="#linearGradient2479"/><linearGradient id="linearGradient3057" x1="21.994" x2="20.917" y1="33.955" y2="15.815" gradientTransform="matrix(0.96384888,0,0,0.96384888,58.385606,4.4782621)" gradientUnits="userSpaceOnUse" xlink:href="#linearGradient3957"/><linearGradient id="linearGradient3008" x1="16.875" x2="27.901" y1="22.852" y2="34.977" gradientUnits="userSpaceOnUse" xlink:href="#linearGradient7916-1"/><linearGradient id="linearGradient7916-1"><stop style="stop-color:#fff;stop-opacity:1" id="stop7918-7" offset="0"/><stop style="stop-color:#fff;stop-opacity:.34020618" id="stop7920-4" offset="1"/></linearGradient></defs><metadata id="metadata6436"/><g id="layer1" transform="translate(0,-16)"><g id="g3003" transform="matrix(0.73929114,0,0,0.73929114,-1.7954406,13.540674)"><path id="text1314" d="m 27.514356,28.359472 12.119089,0.116071 0,-6.995324 -12.11016,0 -7.020739,-0.01786 -11.9583755,0.02679 -0.035714,6.968539 12.0030185,0.01786 7.002881,-0.116071 z" style="font-size:59.90107727px;font-style:normal;font-variant:normal;font-weight:700;font-stretch:normal;text-align:start;line-height:125%;writing-mode:lr-tb;text-anchor:start;fill:red;fill-opacity:1;stroke:red;stroke-width:1.33854115;stroke-linecap:butt;stroke-linejoin:miter;stroke-miterlimit:4;stroke-opacity:1;stroke-dasharray:none;font-family:Bitstream Vera Sans"/><path id="path7076" d="m 38.579429,27.484113 0.0089,-5.008804 -29.0615707,0.01786 -0.026786,4.97309 29.0794287,0.01786 z" style="font-size:59.90107727px;font-style:normal;font-variant:normal;font-weight:700;font-stretch:normal;text-align:start;line-height:125%;writing-mode:lr-tb;text-anchor:start;opacity:.40860213;fill:#faa;fill-opacity:1;stroke:url(#linearGradient3008);stroke-width:1.0000006px;stroke-linecap:butt;stroke-linejoin:miter;stroke-opacity:1;font-family:Bitstream Vera Sans"/><path id="path7914" d="m 9,25 c 0,1.9375 30.125,-0.9375 30.125,0 l 0,-3 L 9,22 9,25 z" style="opacity:.31182796;fill:#fff;fill-opacity:1;fill-rule:evenodd;stroke:none"/></g><g id="g2961" transform="matrix(0.35768017,0,0,0.35768017,15.2897,31.577571)"><g id="g3046" transform="matrix(0.94084224,0,0,0.94084224,-52.104725,-0.99580753)"><g id="g4006" transform="matrix(0.96097174,0,0,0.96097174,58.45466,4.4593461)"><path style="fill:#999;fill-opacity:1;fill-rule:nonzero;stroke:#5a5a5a;stroke-width:2.51953761;stroke-linecap:butt;stroke-linejoin:miter;stroke-miterlimit:4;stroke-opacity:1;stroke-dasharray:none" id="path1314" d="m 46.857143,23.928572 c 0,12.899794 -10.457349,23.357143 -23.357143,23.357143 -12.899794,0 -23.3571434,-10.457349 -23.3571434,-23.357143 0,-12.899794 10.4573494,-23.3571437 23.3571434,-23.3571437 12.899794,0 23.357143,10.4573497 23.357143,23.3571437 z" transform="matrix(0.920488,0,0,0.920488,2.368532,0.97408)"/><path style="opacity:.34659089;fill:#c00;fill-opacity:0;stroke:url(#linearGradient3055);stroke-width:1.16809607;stroke-linecap:butt;stroke-linejoin:miter;stroke-miterlimit:4;stroke-opacity:1;stroke-dasharray:none" id="path3560" d="m 49.901535,26.635273 c 0,13.249931 -10.741192,23.991123 -23.991123,23.991123 -13.249932,0 -23.9911234,-10.741192 -23.9911234,-23.991123 0,-13.249931 10.7411914,-23.9911232 23.9911234,-23.9911232 13.249931,0 23.991123,10.7411922 23.991123,23.9911232 z" transform="matrix(0.856093,0,0,0.856093,1.818275,0.197769)"/></g><rect id="rect2070" width="26.907" height="7.688" x="68.064" y="22.718" style="fill:#efefef;fill-opacity:1;fill-rule:nonzero;stroke:none"/><path style="fill:url(#linearGradient3057);fill-opacity:1;fill-rule:nonzero;stroke:none" id="path3955" d="m 100.18839,25.408708 c 0,10.439077 -9.980005,-6.039775 -17.999622,0.37242 -7.832546,6.262618 -19.852361,11.749849 -19.852361,1.310769 0,-10.683352 8.381048,-20.5945619 18.820129,-20.5945619 10.439077,0 19.031854,8.4722939 19.031854,18.9113729 z"/></g></g></g></svg>