<svg xmlns="http://www.w3.org/2000/svg" xmlns:svg="http://www.w3.org/2000/svg" xmlns:xlink="http://www.w3.org/1999/xlink" id="svg2" width="32" height="32" version="1.0"><defs id="defs4"><linearGradient id="linearGradient4542"><stop style="stop-color:#888a85;stop-opacity:1" id="stop4544" offset="0"/><stop style="stop-color:#888a85;stop-opacity:0" id="stop4546" offset="1"/></linearGradient><linearGradient id="linearGradient2816"><stop style="stop-color:white;stop-opacity:1" id="stop2818" offset="0"/><stop style="stop-color:white;stop-opacity:0" id="stop2820" offset="1"/></linearGradient><linearGradient id="linearGradient4562"><stop style="stop-color:white;stop-opacity:1" id="stop4564" offset="0"/><stop style="stop-color:white;stop-opacity:.34600762" id="stop4566" offset="1"/></linearGradient><linearGradient id="linearGradient3037" x1="9.906" x2="15.173" y1="23.185" y2="43.145" gradientUnits="userSpaceOnUse" xlink:href="#linearGradient4562"/><linearGradient id="linearGradient3041" x1="15.406" x2="16.865" y1="37.344" y2="24.25" gradientTransform="matrix(0,0.85090782,-0.85399344,0,43.470419,10.663711)" gradientUnits="userSpaceOnUse" xlink:href="#linearGradient2816"/><linearGradient id="linearGradient3045" x1="33.12" x2="22.328" y1="20.5" y2="20.5" gradientTransform="matrix(0.91858202,0,0,1.2630484,7.4517246,-40.617796)" gradientUnits="userSpaceOnUse" xlink:href="#linearGradient4542"/></defs><metadata id="metadata7"/><g id="layer1" transform="translate(0,-16)"><g id="g2820"><g id="g3069" transform="matrix(-0.70710678,-0.70710678,-0.70710678,0.70710678,47.118926,20.353981)"><g id="g3852"><path id="path1884" d="m 13.580636,12.790979 c -4.9497454,-2e-6 -8.9597596,3.988424 -8.9597596,8.920287 3e-7,3.559524 2.0267226,6.694914 5.0521992,8.130884 l 0,1.894573 1.8945724,1.894576 -1.8945724,1.894573 0,1.263052 2.5261014,1.263049 0,1.263049 -2.5261014,1.263052 0,1.263049 1.8945724,1.894572 -1.8945724,1.894577 0,1.263049 3.1576264,2.526101 3.157621,0 1.263053,-1.894577 0,-17.682695 c 2.996493,-1.446741 5.052197,-4.67141 5.052197,-8.209824 0,-4.931862 -3.773193,-8.841347 -8.722937,-8.841347 z m -0.11841,2.526097 c 1.394405,0 2.526097,1.131695 2.526097,2.5261 0,1.394407 -1.131692,2.526099 -2.526097,2.526099 -1.394407,0 -2.526102,-1.131692 -2.526102,-2.526099 0,-1.394405 1.131695,-2.5261 2.526102,-2.5261 z" style="fill:#ff0;fill-opacity:1;fill-rule:evenodd;stroke:#62645f;stroke-width:1.2630493599999999;stroke-linecap:round;stroke-linejoin:miter;stroke-miterlimit:4;stroke-opacity:1;stroke-dasharray:none"/><path id="path3057" d="m 14.0625,13.25 c -4.4619895,-2e-6 -8.03125,3.586817 -8.03125,8.03125 3e-7,3.215666 1.8211214,5.994953 4.53125,7.28125 a 0.96104999,0.96104999 0 0 1 0.5625,0.875 l 0,1.5 1.625,1.625 a 0.96104999,0.96104999 0 0 1 0,1.375 l -1.625,1.625 0,0.3125 2,1 a 0.96104999,0.96104999 0 0 1 0.53125,0.84375 l 0,1.25 A 0.96104999,0.96104999 0 0 1 13.125,39.8125 l -2,1 0,0.3125 1.625,1.625 a 0.96104999,0.96104999 0 0 1 0,1.375 l -1.625,1.625 0,0.4375 2.5,2 2.34375,0 0.84375,-1.25 0,-17.5 a 0.96104999,0.96104999 0 0 1 0.5625,-0.875 c 2.667227,-1.287767 4.5,-4.182391 4.5,-7.375 0,-4.47267 -3.338454,-7.9375 -7.8125,-7.9375 z m -0.09375,0.625 c 1.918226,0 3.5,1.581774 3.5,3.5 0,1.918226 -1.581775,3.5 -3.5,3.5 -1.918226,0 -3.53125,-1.567508 -3.53125,-3.5 0,-1.932492 1.613024,-3.5 3.53125,-3.5 z" xlink:href="#path1884" style="opacity:.8;fill:none;stroke:url(#linearGradient3037);stroke-width:.99999976;stroke-linecap:round;stroke-linejoin:miter;stroke-miterlimit:4;stroke-opacity:1;stroke-dasharray:none"/><path id="path2813" d="m 13.541164,14.093499 c -0.28582,0.0058 -0.588833,0.04307 -0.868345,0.07895 -1.227993,0.15753 -2.367269,0.583856 -3.354976,1.223582 0.2668657,1.035648 0.683323,1.851909 1.184111,2.565568 -0.0015,-0.03985 0,-0.07818 0,-0.118411 0,-1.743011 1.414615,-3.157624 3.157621,-3.157624 1.743011,0 3.157625,1.414613 3.157625,3.157624 0,1.743011 -1.414614,3.157626 -3.157625,3.157626 -0.204469,0 -0.398375,-0.04177 -0.592052,-0.07895 1.424599,1.649001 2.76434,3.769937 3.078682,8.051944 2.99403,-1.131279 5.13114,-3.774099 5.13114,-7.262538 -0.109594,-3.333181 -1.98598,-5.926418 -5.13114,-7.223064 -0.873355,-0.289341 -1.747566,-0.411726 -2.605041,-0.394703 z m 2.605041,14.959244 0,3.276036 c 0.04479,-1.200449 0.06742,-2.311024 0,-3.276036 z m 0,3.276036 c -0.141821,3.801424 -0.871307,8.84342 -2.565569,15.788123 l 1.697224,0 0.868345,-1.697224 0,-14.090899 z" style="opacity:.6;fill:url(#linearGradient3041);fill-opacity:1;fill-rule:evenodd;stroke:none"/><rect id="rect2809" width="20.209" height="1.263" x="28.579" y="-15.357" transform="matrix(0,1,-1,0,0,0)" style="fill:url(#linearGradient3045);fill-opacity:1;fill-rule:evenodd;stroke:none"/></g></g></g></g></svg>