<svg xmlns="http://www.w3.org/2000/svg" xmlns:svg="http://www.w3.org/2000/svg" xmlns:xlink="http://www.w3.org/1999/xlink" id="svg2" width="32" height="32" version="1.0"><defs id="defs4"><linearGradient id="linearGradient4027"><stop id="stop4029" offset="0" style="stop-color:white;stop-opacity:1"/><stop id="stop4031" offset="1" style="stop-color:white;stop-opacity:0"/></linearGradient><linearGradient id="linearGradient4019"><stop style="stop-color:#87add6;stop-opacity:1" id="stop4021" offset="0"/><stop style="stop-color:#87add6;stop-opacity:0" id="stop4023" offset="1"/></linearGradient><linearGradient id="linearGradient4013"><stop id="stop4015" offset="0" style="stop-color:white;stop-opacity:1"/><stop id="stop4017" offset="1" style="stop-color:white;stop-opacity:0"/></linearGradient><linearGradient id="linearGradient4005"><stop style="stop-color:#80471b;stop-opacity:1" id="stop4007" offset="0"/><stop style="stop-color:#80471b;stop-opacity:0" id="stop4009" offset="1"/></linearGradient><linearGradient id="linearGradient3999"><stop id="stop4001" offset="0" style="stop-color:#80471b;stop-opacity:1"/><stop id="stop4003" offset="1" style="stop-color:#80471b;stop-opacity:1"/></linearGradient><linearGradient id="linearGradient3993"><stop id="stop3995" offset="0" style="stop-color:#80471b;stop-opacity:1"/><stop id="stop3997" offset="1" style="stop-color:#80471b;stop-opacity:1"/></linearGradient><linearGradient id="linearGradient3870"><stop id="stop3872" offset="0" style="stop-color:#eece81;stop-opacity:1"/><stop id="stop3874" offset="1" style="stop-color:#eece81;stop-opacity:0"/></linearGradient><linearGradient id="linearGradient3193"><stop style="stop-color:#2b4c7b;stop-opacity:1" id="stop3195" offset="0"/><stop style="stop-color:#3b4f6b;stop-opacity:0" id="stop3197" offset="1"/></linearGradient><linearGradient id="linearGradient3185"><stop style="stop-color:#445b7c;stop-opacity:1" id="stop3187" offset="0"/><stop style="stop-color:#536a8a;stop-opacity:0" id="stop3189" offset="1"/></linearGradient><linearGradient id="linearGradient3122"><stop id="stop3124" offset="0" style="stop-color:#62645f;stop-opacity:1"/><stop id="stop3126" offset="1" style="stop-color:#6d6f6a;stop-opacity:1"/></linearGradient><linearGradient id="linearGradient3116"><stop id="stop3118" offset="0" style="stop-color:#767872;stop-opacity:1"/><stop id="stop3120" offset="1" style="stop-color:#494a47;stop-opacity:1"/></linearGradient><linearGradient id="linearGradient2924"><stop id="stop2926" offset="0" style="stop-color:#425e97;stop-opacity:1"/><stop id="stop2928" offset="1" style="stop-color:#425e97;stop-opacity:0"/></linearGradient><linearGradient id="linearGradient2918"><stop id="stop2920" offset="0" style="stop-color:#8f5902;stop-opacity:1"/><stop id="stop2922" offset="1" style="stop-color:#f0cc2c;stop-opacity:1"/></linearGradient><linearGradient id="linearGradient2912"><stop id="stop2914" offset="0" style="stop-color:#f3cf26;stop-opacity:1"/><stop id="stop2916" offset="1" style="stop-color:#fffce2;stop-opacity:1"/></linearGradient><linearGradient id="linearGradient3029"><stop style="stop-color:black;stop-opacity:1" id="stop3031" offset="0"/><stop style="stop-color:black;stop-opacity:0" id="stop3033" offset="1"/></linearGradient><linearGradient id="linearGradient3004"><stop style="stop-color:white;stop-opacity:0" id="stop3006" offset="0"/><stop id="stop3012" offset=".12" style="stop-color:white;stop-opacity:1"/><stop style="stop-color:white;stop-opacity:1" id="stop3014" offset=".88"/><stop style="stop-color:white;stop-opacity:0" id="stop3008" offset="1"/></linearGradient><linearGradient id="linearGradient2956"><stop style="stop-color:#834b91;stop-opacity:0" id="stop2958" offset="0"/><stop id="stop2964" offset=".12" style="stop-color:#834b91;stop-opacity:1"/><stop style="stop-color:#834b91;stop-opacity:1" id="stop2966" offset=".88"/><stop style="stop-color:#834b91;stop-opacity:0" id="stop2960" offset="1"/></linearGradient><linearGradient id="linearGradient2925"><stop style="stop-color:#c5a4c1;stop-opacity:0" id="stop2927" offset="0"/><stop id="stop2933" offset=".12" style="stop-color:#c5a4c1;stop-opacity:1"/><stop style="stop-color:#c5a4c1;stop-opacity:1" id="stop2935" offset=".88"/><stop style="stop-color:#c5a4c1;stop-opacity:0" id="stop2929" offset="1"/></linearGradient><linearGradient id="linearGradient2828"><stop id="stop2830" offset="0" style="stop-color:#8f5902;stop-opacity:1"/><stop id="stop2832" offset="1" style="stop-color:#c4a000;stop-opacity:1"/></linearGradient><linearGradient id="linearGradient2818"><stop id="stop2822" offset="0" style="stop-color:#c59a18;stop-opacity:1"/><stop id="stop2824" offset="1" style="stop-color:#fff9cc;stop-opacity:1"/></linearGradient><linearGradient id="linearGradient4542"><stop style="stop-color:#888a85;stop-opacity:1" id="stop4544" offset="0"/><stop style="stop-color:#888a85;stop-opacity:0" id="stop4546" offset="1"/></linearGradient><linearGradient id="linearGradient2816"><stop style="stop-color:white;stop-opacity:1" id="stop2818" offset="0"/><stop style="stop-color:white;stop-opacity:0" id="stop2820" offset="1"/></linearGradient><linearGradient id="linearGradient4562"><stop style="stop-color:white;stop-opacity:1" id="stop4564" offset="0"/><stop style="stop-color:white;stop-opacity:.34600762" id="stop4566" offset="1"/></linearGradient><linearGradient id="linearGradient2817"><stop style="stop-color:#888a85;stop-opacity:1" id="stop2819" offset="0"/><stop style="stop-color:#888a85;stop-opacity:0" id="stop2821" offset="1"/></linearGradient><linearGradient id="linearGradient2803"><stop id="stop2805" offset="0" style="stop-color:#babdb6;stop-opacity:1"/><stop id="stop2807" offset="1" style="stop-color:#eeeeec;stop-opacity:1"/></linearGradient><linearGradient id="linearGradient2760"><stop style="stop-color:#acafa6;stop-opacity:1" id="stop2762" offset="0"/><stop style="stop-color:#eeeeec;stop-opacity:1" id="stop2764" offset="1"/></linearGradient><radialGradient id="radialGradient3041" cx="-49.302" cy="-.329" r="6.698" fx="-49.302" fy="-.329" gradientTransform="matrix(1,0,0,1.14515,0,4.780083e-2)" gradientUnits="userSpaceOnUse" xlink:href="#linearGradient3029"/><radialGradient id="radialGradient2930" cx="-49.302" cy="-.329" r="6.698" fx="-49.302" fy="-.329" gradientTransform="matrix(1,0,0,1.14515,0,4.780083e-2)" gradientUnits="userSpaceOnUse" xlink:href="#linearGradient3029"/><linearGradient id="linearGradient2932" x1="0" x2="48" y1="14" y2="14" gradientTransform="matrix(1,0,0,1.299999,0,1.800001)" gradientUnits="userSpaceOnUse" xlink:href="#linearGradient2925"/><linearGradient id="linearGradient2934" x1="13.5" x2="65.875" y1="4.875" y2="4.875" gradientTransform="matrix(0.914842,0,0,1.17647,-12.3078,14.26471)" gradientUnits="userSpaceOnUse" xlink:href="#linearGradient2956"/><linearGradient id="linearGradient2936" x1="0" x2="48" y1="19.938" y2="19.938" gradientTransform="matrix(1,0,0,1.005464,0,-4.644693e-2)" gradientUnits="userSpaceOnUse" xlink:href="#linearGradient3004"/><linearGradient id="linearGradient2938" x1="0" x2="48" y1="12.485" y2="12.485" gradientUnits="userSpaceOnUse" xlink:href="#linearGradient3004"/><linearGradient id="linearGradient3044" x1="11.875" x2="6" y1="24.313" y2="9.812" gradientUnits="userSpaceOnUse" xlink:href="#linearGradient3122"/><linearGradient id="linearGradient3092" x1="16.121" x2="22.277" y1="16.071" y2="11.163" gradientTransform="matrix(0.711681,0,0,0.674699,-2.975663,-2.879518)" gradientUnits="userSpaceOnUse" xlink:href="#linearGradient2818"/><linearGradient id="linearGradient3094" x1="18.732" x2="23.03" y1="18.228" y2="13.737" gradientTransform="matrix(0.711681,0,0,0.674699,-2.975663,-2.879518)" gradientUnits="userSpaceOnUse" xlink:href="#linearGradient2828"/><linearGradient id="linearGradient3096" x1="17" x2="22.922" y1="26.313" y2="48.879" gradientTransform="matrix(0,0.673693,-0.676136,0,37.10227,14.81577)" gradientUnits="userSpaceOnUse" xlink:href="#linearGradient2803"/><linearGradient id="linearGradient3098" x1="17.508" x2="17" y1="41.01" y2="24.659" gradientTransform="matrix(0,0.625,-0.676136,0,37.10227,15.875)" gradientUnits="userSpaceOnUse" xlink:href="#linearGradient2817"/><linearGradient id="linearGradient3100" x1="15.406" x2="16.865" y1="37.344" y2="24.25" gradientTransform="matrix(0,0.673693,-0.676136,0,37.10227,14.81577)" gradientUnits="userSpaceOnUse" xlink:href="#linearGradient2816"/><linearGradient id="linearGradient3102" x1="33.12" x2="22.328" y1="20.5" y2="20.5" gradientTransform="matrix(0.777698,0,0,1.332875,10.57722,-42.1388)" gradientUnits="userSpaceOnUse" xlink:href="#linearGradient4542"/><linearGradient id="linearGradient3104" x1="7.695" x2="9.65" y1="10.458" y2="23.583" gradientUnits="userSpaceOnUse" xlink:href="#linearGradient4562"/><linearGradient id="linearGradient3106" x1="18.434" x2="17.479" y1="12.923" y2="8.705" gradientTransform="matrix(0.758502,0,0,0.696463,-4.862009,-2.902257)" gradientUnits="userSpaceOnUse" xlink:href="#linearGradient2760"/><linearGradient id="linearGradient3108" x1="21.621" x2="22.861" y1="9.909" y2="12.799" gradientTransform="matrix(0.711681,0,0,0.674699,-7.636464,-1.928613)" gradientUnits="userSpaceOnUse" xlink:href="#linearGradient3116"/><linearGradient id="linearGradient3110" x1="16.728" x2="18.495" y1="17.574" y2="14.063" gradientTransform="matrix(0.711681,0,0,0.674699,-2.975663,-2.879518)" gradientUnits="userSpaceOnUse" xlink:href="#linearGradient2912"/><linearGradient id="linearGradient3112" x1="20.561" x2="22.448" y1="19.297" y2="8.934" gradientTransform="matrix(0.711681,0,0,0.674699,-2.975663,-2.879518)" gradientUnits="userSpaceOnUse" xlink:href="#linearGradient2918"/><linearGradient id="linearGradient3150" x1="16.121" x2="22.277" y1="16.071" y2="11.163" gradientTransform="matrix(0.711681,0,0,0.674699,-2.975663,-2.879518)" gradientUnits="userSpaceOnUse" xlink:href="#linearGradient2818"/><linearGradient id="linearGradient3152" x1="18.732" x2="23.03" y1="18.228" y2="13.737" gradientTransform="matrix(0.711681,0,0,0.674699,-2.975663,-2.879518)" gradientUnits="userSpaceOnUse" xlink:href="#linearGradient2828"/><linearGradient id="linearGradient3158" x1="17.508" x2="17" y1="41.01" y2="24.659" gradientTransform="matrix(0,0.625,-0.676136,0,37.10227,15.875)" gradientUnits="userSpaceOnUse" xlink:href="#linearGradient2924"/><linearGradient id="linearGradient3160" x1="15.406" x2="16.865" y1="37.344" y2="24.25" gradientTransform="matrix(0,0.673693,-0.676136,0,37.10227,14.81577)" gradientUnits="userSpaceOnUse" xlink:href="#linearGradient2816"/><linearGradient id="linearGradient3162" x1="33.12" x2="22.328" y1="20.5" y2="20.5" gradientTransform="matrix(0.777698,0,0,1.332875,10.57722,-42.1388)" gradientUnits="userSpaceOnUse" xlink:href="#linearGradient3193"/><linearGradient id="linearGradient3164" x1="11.849" x2="12.876" y1="15.01" y2="15.097" gradientUnits="userSpaceOnUse" xlink:href="#linearGradient4027"/><linearGradient id="linearGradient3166" x1="18.434" x2="17.479" y1="12.923" y2="8.705" gradientTransform="matrix(0.758502,0,0,0.696463,-4.862009,-2.902257)" gradientUnits="userSpaceOnUse" xlink:href="#linearGradient2760"/><linearGradient id="linearGradient3168" x1="21.621" x2="22.861" y1="9.909" y2="12.799" gradientTransform="matrix(0.711681,0,0,0.674699,-7.636464,-1.928613)" gradientUnits="userSpaceOnUse" xlink:href="#linearGradient3116"/><linearGradient id="linearGradient3170" x1="16.728" x2="18.495" y1="17.574" y2="14.063" gradientTransform="matrix(0.711681,0,0,0.674699,-2.975663,-2.879518)" gradientUnits="userSpaceOnUse" xlink:href="#linearGradient2912"/><linearGradient id="linearGradient3172" x1="20.561" x2="22.448" y1="19.297" y2="8.934" gradientTransform="matrix(0.711681,0,0,0.674699,-2.975663,-2.879518)" gradientUnits="userSpaceOnUse" xlink:href="#linearGradient2918"/><linearGradient id="linearGradient3191" x1="11.999" x2="12.989" y1="15.449" y2="15.459" gradientUnits="userSpaceOnUse" xlink:href="#linearGradient3185"/><linearGradient id="linearGradient3969" x1="16.121" x2="22.277" y1="16.071" y2="11.163" gradientTransform="matrix(0.711681,0,0,0.674699,-2.975663,-2.879518)" gradientUnits="userSpaceOnUse" xlink:href="#linearGradient2818"/><linearGradient id="linearGradient3971" x1="18.732" x2="23.03" y1="18.228" y2="13.737" gradientTransform="matrix(0.711681,0,0,0.674699,-2.975663,-2.879518)" gradientUnits="userSpaceOnUse" xlink:href="#linearGradient2828"/><linearGradient id="linearGradient3973" x1="3.224" x2="3.177" y1="44.483" y2="47.572" gradientTransform="matrix(0,0.673693,-0.676136,0,37.10227,14.81577)" gradientUnits="userSpaceOnUse" xlink:href="#linearGradient3870"/><linearGradient id="linearGradient3977" x1="17.508" x2="17" y1="41.01" y2="24.659" gradientTransform="matrix(0,0.625,-0.676136,0,37.10227,15.875)" gradientUnits="userSpaceOnUse" xlink:href="#linearGradient3999"/><linearGradient id="linearGradient3979" x1="15.406" x2="16.865" y1="37.344" y2="24.25" gradientTransform="matrix(0,0.673693,-0.676136,0,37.10227,14.81577)" gradientUnits="userSpaceOnUse" xlink:href="#linearGradient2816"/><linearGradient id="linearGradient3981" x1="33.12" x2="22.328" y1="20.5" y2="20.5" gradientTransform="matrix(0.777698,0,0,1.332875,10.57722,-42.1388)" gradientUnits="userSpaceOnUse" xlink:href="#linearGradient3993"/><linearGradient id="linearGradient3983" x1="7.165" x2="5.496" y1="14.037" y2="14.037" gradientUnits="userSpaceOnUse" xlink:href="#linearGradient4013"/><linearGradient id="linearGradient3985" x1="18.434" x2="17.479" y1="12.923" y2="8.705" gradientTransform="matrix(0.758502,0,0,0.696463,-4.862009,-2.902257)" gradientUnits="userSpaceOnUse" xlink:href="#linearGradient2760"/><linearGradient id="linearGradient3987" x1="21.621" x2="22.861" y1="9.909" y2="12.799" gradientTransform="matrix(0.711681,0,0,0.674699,-7.636464,-1.928613)" gradientUnits="userSpaceOnUse" xlink:href="#linearGradient3116"/><linearGradient id="linearGradient3989" x1="16.728" x2="18.495" y1="17.574" y2="14.063" gradientTransform="matrix(0.711681,0,0,0.674699,-2.975663,-2.879518)" gradientUnits="userSpaceOnUse" xlink:href="#linearGradient2912"/><linearGradient id="linearGradient3991" x1="20.561" x2="22.448" y1="19.297" y2="8.934" gradientTransform="matrix(0.711681,0,0,0.674699,-2.975663,-2.879518)" gradientUnits="userSpaceOnUse" xlink:href="#linearGradient2918"/><linearGradient id="linearGradient4011" x1="6.828" x2="5.012" y1="19.516" y2="19.472" gradientUnits="userSpaceOnUse" xlink:href="#linearGradient4005"/><linearGradient id="linearGradient4025" x1="12.043" x2="13.055" y1="17.086" y2="17.042" gradientUnits="userSpaceOnUse" xlink:href="#linearGradient4019"/></defs><metadata id="metadata7"/><g id="layer1"><g id="g2900" transform="matrix(0.659581,0,0,0.666666,0.170209,-0.166637)"><rect id="rect1869" width="48" height="26" x="0" y="7" style="fill:url(#linearGradient2932);fill-opacity:1;fill-rule:evenodd;stroke:none;stroke-width:1.00000036;stroke-linecap:square;stroke-linejoin:miter;stroke-miterlimit:4.5999999;stroke-dasharray:none;stroke-opacity:1"/><path id="rect2968" d="M 0.50000076,6.9999625 L 47.499535,6.9999625 M 47.499535,32.499988 L 0.49999999,32.5" style="fill:none;fill-opacity:1;fill-rule:evenodd;stroke:url(#linearGradient2934);stroke-width:1.50803602;stroke-linecap:square;stroke-linejoin:miter;stroke-miterlimit:5;stroke-dasharray:none;stroke-opacity:1"/><path id="rect3001" d="M 47.499535,30.999986 L 0.50000076,30.999986 M 0.5,8.4999981 L 47.499535,8.499964" style="opacity:.3;fill:none;fill-opacity:1;fill-rule:evenodd;stroke:url(#linearGradient2936);stroke-width:1.50803602;stroke-linecap:square;stroke-linejoin:miter;stroke-miterlimit:5;stroke-opacity:1"/><path id="rect1992" d="M -0.25805625,7.7499632 L 48.257592,7.7499632 L 48.257592,16.749972 C 28.881803,22.004602 21.222193,11.859479 -0.25805625,16.749972 L -0.25805625,7.7499632 z" style="opacity:.4;fill:url(#linearGradient2938);fill-opacity:1;fill-rule:evenodd;stroke:none;stroke-width:1;stroke-linecap:square;stroke-linejoin:miter;stroke-miterlimit:5;stroke-opacity:1"/></g><path style="opacity:.6;fill:url(#radialGradient2930);fill-opacity:1;fill-rule:evenodd;stroke:none;stroke-width:1;stroke-linecap:square;stroke-linejoin:miter;stroke-miterlimit:5;stroke-dasharray:none;stroke-opacity:1" id="path3027" d="M -42.603187 -0.32932085 A 6.6984072 7.6706791 0 1 1 -56.000001,-0.32932085 A 6.6984072 7.6706791 0 1 1 -42.603187 -0.32932085 z" transform="matrix(0.746446,0,0,0.847382,42.80098,15.77906)"/><path style="opacity:.6;fill:url(#radialGradient3041);fill-opacity:1;fill-rule:evenodd;stroke:none;stroke-width:1;stroke-linecap:square;stroke-linejoin:miter;stroke-miterlimit:5;stroke-dasharray:none;stroke-opacity:1" id="path3039" d="M -42.603187 -0.32932085 A 6.6984072 7.6706791 0 1 1 -56.000001,-0.32932085 A 6.6984072 7.6706791 0 1 1 -42.603187 -0.32932085 z" transform="matrix(0.746445,0,0,0.847382,54.80094,15.77906)"/><g id="g3017" transform="translate(7,1)"><path id="path1925" d="M 8.0553925,4.2048215 C 6.4671959,5.9041643 6.1268857,8.2729981 6.9092409,10.336748 L 8.5340777,10.103622 C 8.7000851,9.511064 8.2018678,6.4985815 9.0000003,5.5 L 8.0553925,4.2048215 z" style="fill:url(#linearGradient3092);fill-opacity:1;fill-rule:evenodd;stroke:url(#linearGradient3094);stroke-width:1.00000024;stroke-linecap:square;stroke-linejoin:miter;stroke-miterlimit:5;stroke-dasharray:none;stroke-opacity:1"/><g id="g3069" transform="matrix(0.711681,0,0,0.674699,-1.773884e-2,-2.204819)"><path style="fill:url(#linearGradient3096);fill-opacity:1;fill-rule:evenodd;stroke:url(#linearGradient3044);stroke-width:1.00000012;stroke-linecap:round;stroke-linejoin:miter;stroke-miterlimit:4;stroke-dasharray:none;stroke-opacity:1" id="path1884" d="M 9.5,8.5 C 6.7110049,8.4999992 4.5,10.865486 4.5,13.5 C 4.5000001,15.401435 5.7952576,17.232931 7.5,18 L 7.5,19 L 8.5,20 L 7.5,21 L 7.4999996,21.500006 L 8.4999995,22.500006 L 8.4999995,23.500006 L 7.5,23.5 L 7.5,24.5 L 8.4999995,25.000007 L 8.4999995,25.500007 L 7.4999996,26.500007 L 7.5,27 L 9,28.5 L 10.5,28.5 L 11.5,27.5 L 11.5,18 C 13.188412,17.227177 14.5,15.390158 14.5,13.5 C 14.5,10.865486 12.288995,8.5 9.5,8.5 z M 9.5,9.5 C 10.604002,9.4999999 11.5,10.396 11.5,11.5 C 11.5,12.604 10.604001,13.5 9.5,13.5 C 8.3959989,13.5 7.5,12.604 7.5,11.5 C 7.5000002,10.396001 8.3959986,9.5 9.5,9.5 z" transform="matrix(1.405124,0,0,1.482142,2.492527e-2,3.267856)"/><path style="opacity:.3;fill:url(#linearGradient3098);fill-opacity:1;fill-rule:evenodd;stroke:none;stroke-width:1.0274241;stroke-linecap:round;stroke-linejoin:miter;stroke-miterlimit:4;stroke-dasharray:none;stroke-opacity:1" id="path2838" d="M 18.291536,24.017849 L 8.4556688,24.017849 C 8.8954422,26.680191 11.04647,28.458395 13.373603,28.464277 C 15.747282,28.470276 17.66886,26.59019 18.291536,24.017849 z"/><path style="opacity:.6;fill:url(#linearGradient3100);fill-opacity:1;fill-rule:evenodd;stroke:none;stroke-width:1;stroke-linecap:round;stroke-linejoin:miter;stroke-miterlimit:4;stroke-dasharray:none;stroke-opacity:1" id="path2813" d="M 12.671041,16.607137 C 15.476928,16.603245 16.874542,17.451625 16.886412,20.312493 C 16.902055,22.672907 15.049822,23.899972 13.373603,24.017849 C 14.501509,25.32342 15.219875,25.922289 15.46875,29.3125 C 17.888132,28.468414 19.699659,26.041859 19.69666,23.276778 C 19.517124,18.477733 16.18385,16.607137 12.671041,16.607137 z M 15.46875,29.375 C 15.442483,32.350855 15.522755,31.997654 15.46875,29.375 z"/><rect style="opacity:.9;fill:url(#linearGradient3102);fill-opacity:1;fill-rule:evenodd;stroke:none;stroke-width:1;stroke-linecap:round;stroke-linejoin:miter;stroke-miterlimit:4;stroke-dasharray:none;stroke-opacity:1" id="rect2809" width="16.304" height="1.405" x="28.464" y="-15.481" transform="matrix(0,1,-1,0,0,0)"/></g><path id="path2943" d="M 9.450118,9.5243893 C 7.2176638,9.5243886 5.5509297,11.409953 5.4478625,13.504606 C 5.3708588,15.069566 6.8827135,16.908723 8.5210908,17.3368 L 8.515625,18.625 L 9.921875,20.03125 L 8.671875,21.25 L 9.5,22.078125 L 9.5,25.953125 L 8.6875,26.765625 L 9.40625,27.515625 L 10,27.5 L 10.5,27 L 10.484375,17.375 C 12.173851,16.844296 13.494401,15.145983 13.452373,13.504606 C 13.389146,11.05882 11.689225,9.5110832 9.450118,9.5243893 z" style="fill:none;fill-opacity:1;fill-rule:evenodd;stroke:url(#linearGradient3104);stroke-width:1;stroke-linecap:round;stroke-linejoin:miter;stroke-miterlimit:2.0999999;stroke-dasharray:none;stroke-opacity:1"/><path id="rect2757" d="M 7.4843752,2.203125 C 7.4843759,1.33519 9.4797195,1.2858706 9.4843753,2.203125 L 9.5000003,4.5 C 9.504738,5.1964473 9.3622466,5.150602 10.5,5.150602 C 11.476828,5.150602 11.451307,7.4999995 10.5,7.4999995 L 9.0000003,7.5000001 C 8.2414985,7.5000001 7.5000002,6.5446945 7.5000002,5.5 L 7.4843752,2.203125 z" style="fill:url(#linearGradient3106);fill-opacity:1;fill-rule:evenodd;stroke:url(#linearGradient3108);stroke-width:.99999982;stroke-linecap:square;stroke-linejoin:miter;stroke-miterlimit:4.5999999;stroke-opacity:1"/><path id="path2991" d="M 12,11.25 C 12,12.492641 10.880712,13.5 9.5,13.5 8.1192881,13.5 7,12.492641 7,11.25 7,10.007359 8.1192881,9 9.5,9 10.880712,9 12,10.007359 12,11.25 z" transform="matrix(0.8,0,0,0.888889,1.9,1.5)" style="opacity:1;fill:none;fill-opacity:1;fill-rule:evenodd;stroke:#8a8c87;stroke-width:1.1858542;stroke-linecap:square;stroke-linejoin:miter;stroke-miterlimit:2.0999999;stroke-dasharray:none;stroke-opacity:1"/><path id="path3076" d="M 10.5,4 L 10.5,5 L 10.5,7.0000003 L 10.5,7.2108437 C 10.523833,7.467792 10.5,7.7327227 10.5,8.0120488 C 10.5,9.6880024 9.5647177,10.499999 9.0000003,10.5 C 8.2285545,10.784332 8.0872153,12.133921 9.0000003,12.5 C 10.627776,12.752808 12.508284,10.584958 12.5,8 C 12.492009,5.5063547 11.43169,4.2457508 10.5,4 z" style="fill:url(#linearGradient3110);fill-opacity:1;fill-rule:evenodd;stroke:url(#linearGradient3112);stroke-width:1.00000024;stroke-linecap:square;stroke-linejoin:miter;stroke-miterlimit:5;stroke-dasharray:none;stroke-opacity:1"/></g><g id="g3128" transform="translate(19,1.000008)"><path id="path3130" d="M 8.0553925,4.2048215 C 6.4671959,5.9041643 6.1268857,8.2729981 6.9092409,10.336748 L 8.5340777,10.103622 C 8.7000851,9.511064 8.2018678,6.4985815 9.0000003,5.5 L 8.0553925,4.2048215 z" style="fill:url(#linearGradient3150);fill-opacity:1;fill-rule:evenodd;stroke:url(#linearGradient3152);stroke-width:1.00000024;stroke-linecap:square;stroke-linejoin:miter;stroke-miterlimit:5;stroke-dasharray:none;stroke-opacity:1"/><g id="g3132" transform="matrix(0.711681,0,0,0.674699,-1.773884e-2,-2.204819)"><path style="fill:url(#linearGradient4025);fill-opacity:1;fill-rule:evenodd;stroke:url(#linearGradient3191);stroke-width:1.00000012;stroke-linecap:round;stroke-linejoin:miter;stroke-miterlimit:4;stroke-dasharray:none;stroke-opacity:1" id="path3134" d="M 9.5,8.5 C 6.7110049,8.4999992 4.5,10.865486 4.5,13.5 C 4.5000001,15.401435 5.7952576,17.232931 7.5,18 L 7.5,19 L 8.5,20 L 7.5,21 L 7.4999996,21.500006 L 8.4999995,22.500006 L 8.4999995,22.499998 L 7.5,23.5 L 7.5,24.5 L 8.4999995,25.000007 L 8.4999995,25.500007 L 7.4999996,26.500007 L 7.5,27 L 9,28.5 L 10.5,28.5 L 11.5,27.5 L 11.5,18 C 13.188412,17.227177 14.5,15.390158 14.5,13.5 C 14.5,10.865486 12.288995,8.5 9.5,8.5 z M 9.5,9.5 C 10.604002,9.4999999 11.5,10.396 11.5,11.5 C 11.5,12.604 10.604001,13.5 9.5,13.5 C 8.3959989,13.5 7.5,12.604 7.5,11.5 C 7.5000002,10.396001 8.3959986,9.5 9.5,9.5 z" transform="matrix(1.405124,0,0,1.482142,2.492527e-2,3.267856)"/><path style="opacity:.3;fill:url(#linearGradient3158);fill-opacity:1;fill-rule:evenodd;stroke:none;stroke-width:1.0274241;stroke-linecap:round;stroke-linejoin:miter;stroke-miterlimit:4;stroke-dasharray:none;stroke-opacity:1" id="path3136" d="M 18.291536,24.017849 L 8.4556688,24.017849 C 8.8954422,26.680191 11.04647,28.458395 13.373603,28.464277 C 15.747282,28.470276 17.66886,26.59019 18.291536,24.017849 z"/><path style="opacity:.6;fill:url(#linearGradient3160);fill-opacity:1;fill-rule:evenodd;stroke:none;stroke-width:1;stroke-linecap:round;stroke-linejoin:miter;stroke-miterlimit:4;stroke-dasharray:none;stroke-opacity:1" id="path3138" d="M 12.671041,16.607137 C 15.476928,16.603245 16.874542,17.451625 16.886412,20.312493 C 16.902055,22.672907 15.049822,23.899972 13.373603,24.017849 C 14.501509,25.32342 15.219875,25.922289 15.46875,29.3125 C 17.888132,28.468414 19.699659,26.041859 19.69666,23.276778 C 19.517124,18.477733 16.18385,16.607137 12.671041,16.607137 z M 15.46875,29.375 C 15.442483,32.350855 15.522755,31.997654 15.46875,29.375 z"/><rect style="opacity:.9;fill:url(#linearGradient3162);fill-opacity:1;fill-rule:evenodd;stroke:none;stroke-width:1;stroke-linecap:round;stroke-linejoin:miter;stroke-miterlimit:4;stroke-dasharray:none;stroke-opacity:1" id="rect3140" width="16.304" height="1.405" x="28.464" y="-15.481" transform="matrix(0,1,-1,0,0,0)"/></g><path id="path3144" d="M 7.4843752,2.203125 C 7.4843759,1.33519 9.4797195,1.2858706 9.4843753,2.203125 L 9.5000003,4.5 C 9.504738,5.1964473 9.3622466,5.150602 10.5,5.150602 C 11.476828,5.150602 11.451307,7.4999995 10.5,7.4999995 L 9.0000003,7.5000001 C 8.2414985,7.5000001 7.5000002,6.5446945 7.5000002,5.5 L 7.4843752,2.203125 z" style="fill:url(#linearGradient3166);fill-opacity:1;fill-rule:evenodd;stroke:url(#linearGradient3168);stroke-width:.99999982;stroke-linecap:square;stroke-linejoin:miter;stroke-miterlimit:4.5999999;stroke-opacity:1"/><path id="path3142" d="M 9.450118,9.5243893 C 7.2176638,9.5243886 5.5509297,11.409953 5.4478625,13.504606 C 5.3708588,15.069566 6.8827135,16.908723 8.5210908,17.3368 L 8.515625,18.625 L 9.921875,20.03125 L 8.671875,21.25 L 9.5,22.078125 L 9.5,25.953125 L 8.6875,26.765625 L 9.40625,27.515625 L 10,27.5 L 10.5,27 L 10.484375,17.375 C 12.173851,16.844296 13.494401,15.145983 13.452373,13.504606 C 13.389146,11.05882 11.689225,9.5110832 9.450118,9.5243893 z" style="opacity:.5;fill:none;fill-opacity:1;fill-rule:evenodd;stroke:url(#linearGradient3164);stroke-width:1;stroke-linecap:round;stroke-linejoin:miter;stroke-miterlimit:2.0999999;stroke-dasharray:none;stroke-opacity:1"/><path id="path3146" d="M 12,11.25 C 12,12.492641 10.880712,13.5 9.5,13.5 8.1192881,13.5 7,12.492641 7,11.25 7,10.007359 8.1192881,9 9.5,9 10.880712,9 12,10.007359 12,11.25 z" transform="matrix(0.8,0,0,0.888889,1.9,1.5)" style="opacity:1;fill:none;fill-opacity:1;fill-rule:evenodd;stroke:#4f6685;stroke-width:1.1858542;stroke-linecap:square;stroke-linejoin:miter;stroke-miterlimit:2.0999999;stroke-dasharray:none;stroke-opacity:1"/><path id="path3148" d="M 10.5,4 L 10.5,5 L 10.5,7.0000003 L 10.5,7.2108437 C 10.523833,7.467792 10.5,7.7327227 10.5,8.0120488 C 10.5,9.6880024 9.5647177,10.499999 9.0000003,10.5 C 8.2285545,10.784332 8.0872153,12.133921 9.0000003,12.5 C 10.627776,12.752808 12.508284,10.584958 12.5,8 C 12.492009,5.5063547 11.43169,4.2457508 10.5,4 z" style="fill:url(#linearGradient3170);fill-opacity:1;fill-rule:evenodd;stroke:url(#linearGradient3172);stroke-width:1.00000024;stroke-linecap:square;stroke-linejoin:miter;stroke-miterlimit:5;stroke-dasharray:none;stroke-opacity:1"/></g><g id="g3947" transform="translate(-5,1.000008)"><path id="path3949" d="M 8.0553925,4.2048215 C 6.4671959,5.9041643 6.1268857,8.2729981 6.9092409,10.336748 L 8.5340777,10.103622 C 8.7000851,9.511064 8.2018678,6.4985815 9.0000003,5.5 L 8.0553925,4.2048215 z" style="fill:url(#linearGradient3969);fill-opacity:1;fill-rule:evenodd;stroke:url(#linearGradient3971);stroke-width:1.00000024;stroke-linecap:square;stroke-linejoin:miter;stroke-miterlimit:5;stroke-dasharray:none;stroke-opacity:1"/><g id="g3951" transform="matrix(0.711681,0,0,0.674699,-1.773884e-2,-2.204819)"><path style="fill:url(#linearGradient3973);fill-opacity:1;fill-rule:evenodd;stroke:url(#linearGradient4011);stroke-width:1.00000012;stroke-linecap:round;stroke-linejoin:miter;stroke-miterlimit:4;stroke-dasharray:none;stroke-opacity:1" id="path3953" d="M 9.5,8.5 C 6.7110049,8.4999992 4.5,10.865486 4.5,13.5 C 4.5000001,15.401435 5.7952576,17.232931 7.5,18 L 7.5,19 L 8.5,20 L 7.5,21 L 7.4999996,21.500006 L 8.4999995,22.500006 L 8.4999995,23.500006 L 7.5,23.5 L 7.5,24.5 L 8.4999995,25.000007 L 8.4999995,25.500007 L 7.4999996,26.500007 L 7.5,27 L 9,28.5 L 10.5,28.5 L 11.5,27.5 L 11.5,18 C 13.188412,17.227177 14.5,15.390158 14.5,13.5 C 14.5,10.865486 12.288995,8.5 9.5,8.5 z M 9.5,9.5 C 10.604002,9.4999999 11.5,10.396 11.5,11.5 C 11.5,12.604 10.604001,13.5 9.5,13.5 C 8.3959989,13.5 7.5,12.604 7.5,11.5 C 7.5000002,10.396001 8.3959986,9.5 9.5,9.5 z" transform="matrix(1.405124,0,0,1.482142,2.492527e-2,3.267856)"/><path style="opacity:.3;fill:url(#linearGradient3977);fill-opacity:1;fill-rule:evenodd;stroke:none;stroke-width:1.0274241;stroke-linecap:round;stroke-linejoin:miter;stroke-miterlimit:4;stroke-dasharray:none;stroke-opacity:1" id="path3955" d="M 18.291536,24.017849 L 8.4556688,24.017849 C 8.8954422,26.680191 11.04647,28.458395 13.373603,28.464277 C 15.747282,28.470276 17.66886,26.59019 18.291536,24.017849 z"/><path style="opacity:.6;fill:url(#linearGradient3979);fill-opacity:1;fill-rule:evenodd;stroke:none;stroke-width:1;stroke-linecap:round;stroke-linejoin:miter;stroke-miterlimit:4;stroke-dasharray:none;stroke-opacity:1" id="path3957" d="M 12.671041,16.607137 C 15.476928,16.603245 16.874542,17.451625 16.886412,20.312493 C 16.902055,22.672907 15.049822,23.899972 13.373603,24.017849 C 14.501509,25.32342 15.219875,25.922289 15.46875,29.3125 C 17.888132,28.468414 19.699659,26.041859 19.69666,23.276778 C 19.517124,18.477733 16.18385,16.607137 12.671041,16.607137 z M 15.46875,29.375 C 15.442483,32.350855 15.522755,31.997654 15.46875,29.375 z"/><rect style="opacity:.9;fill:url(#linearGradient3981);fill-opacity:1;fill-rule:evenodd;stroke:none;stroke-width:1;stroke-linecap:round;stroke-linejoin:miter;stroke-miterlimit:4;stroke-dasharray:none;stroke-opacity:1" id="rect3959" width="16.304" height="1.405" x="28.464" y="-15.481" transform="matrix(0,1,-1,0,0,0)"/></g><path id="path3961" d="M 9.450118,9.5243893 C 7.2176638,9.5243886 5.5509297,11.409953 5.4478625,13.504606 C 5.3708588,15.069566 6.8827135,16.908723 8.5210908,17.3368 L 8.515625,18.625 L 9.921875,20.03125 L 8.671875,21.25 L 9.5,22.078125 L 9.5,25.953125 L 8.6875,26.765625 L 9.40625,27.515625 L 10,27.5 L 10.5,27 L 10.484375,17.375 C 12.173851,16.844296 13.494401,15.145983 13.452373,13.504606 C 13.389146,11.05882 11.689225,9.5110832 9.450118,9.5243893 z" style="fill:none;fill-opacity:1;fill-rule:evenodd;stroke:url(#linearGradient3983);stroke-width:1;stroke-linecap:round;stroke-linejoin:miter;stroke-miterlimit:2.0999999;stroke-dasharray:none;stroke-opacity:1;opacity:.5"/><path id="path3963" d="M 7.4843752,2.203125 C 7.4843759,1.33519 9.4797195,1.2858706 9.4843753,2.203125 L 9.5000003,4.5 C 9.504738,5.1964473 9.3622466,5.150602 10.5,5.150602 C 11.476828,5.150602 11.451307,7.4999995 10.5,7.4999995 L 9.0000003,7.5000001 C 8.2414985,7.5000001 7.5000002,6.5446945 7.5000002,5.5 L 7.4843752,2.203125 z" style="fill:url(#linearGradient3985);fill-opacity:1;fill-rule:evenodd;stroke:url(#linearGradient3987);stroke-width:.99999982;stroke-linecap:square;stroke-linejoin:miter;stroke-miterlimit:4.5999999;stroke-opacity:1"/><path id="path3965" d="M 12,11.25 C 12,12.492641 10.880712,13.5 9.5,13.5 8.1192881,13.5 7,12.492641 7,11.25 7,10.007359 8.1192881,9 9.5,9 10.880712,9 12,10.007359 12,11.25 z" transform="matrix(0.8,0,0,0.888889,1.9,1.5)" style="opacity:1;fill:none;fill-opacity:1;fill-rule:evenodd;stroke:#885022;stroke-width:1.1858542;stroke-linecap:square;stroke-linejoin:miter;stroke-miterlimit:2.0999999;stroke-dasharray:none;stroke-opacity:1"/><path id="path3967" d="M 10.5,4 L 10.5,5 L 10.5,7.0000003 L 10.5,7.2108437 C 10.523833,7.467792 10.5,7.7327227 10.5,8.0120488 C 10.5,9.6880024 9.5647177,10.499999 9.0000003,10.5 C 8.2285545,10.784332 8.0872153,12.133921 9.0000003,12.5 C 10.627776,12.752808 12.508284,10.584958 12.5,8 C 12.492009,5.5063547 11.43169,4.2457508 10.5,4 z" style="fill:url(#linearGradient3989);fill-opacity:1;fill-rule:evenodd;stroke:url(#linearGradient3991);stroke-width:1.00000024;stroke-linecap:square;stroke-linejoin:miter;stroke-miterlimit:5;stroke-dasharray:none;stroke-opacity:1"/></g></g></svg>